%TF.GenerationSoftware,KiCad,Pcbnew,8.0.8*%
%TF.CreationDate,2025-06-13T10:02:37+02:00*%
%TF.ProjectId,Shield,53686965-6c64-42e6-9b69-6361645f7063,rev?*%
%TF.SameCoordinates,Original*%
%TF.FileFunction,Drillmap*%
%TF.FilePolarity,Positive*%
%FSLAX45Y45*%
G04 Gerber Fmt 4.5, Leading zero omitted, Abs format (unit mm)*
G04 Created by KiCad (PCBNEW 8.0.8) date 2025-06-13 10:02:37*
%MOMM*%
%LPD*%
G01*
G04 APERTURE LIST*
%ADD10C,0.050000*%
%ADD11C,0.300000*%
%ADD12C,0.200000*%
%ADD13C,0.100000*%
%ADD14C,0.110000*%
G04 APERTURE END LIST*
D10*
X17879200Y-15138400D02*
G75*
G02*
X17579200Y-15138400I-150000J0D01*
G01*
X17579200Y-15138400D02*
G75*
G02*
X17879200Y-15138400I150000J0D01*
G01*
D11*
X10871200Y-6654800D02*
X18135600Y-6654800D01*
X18135600Y-15544800D01*
X10871200Y-15544800D01*
X10871200Y-6654800D01*
D10*
X17879200Y-7061200D02*
G75*
G02*
X17579200Y-7061200I-150000J0D01*
G01*
X17579200Y-7061200D02*
G75*
G02*
X17879200Y-7061200I150000J0D01*
G01*
X11427600Y-7061200D02*
G75*
G02*
X11127600Y-7061200I-150000J0D01*
G01*
X11127600Y-7061200D02*
G75*
G02*
X11427600Y-7061200I150000J0D01*
G01*
X11427600Y-15138400D02*
G75*
G02*
X11127600Y-15138400I-150000J0D01*
G01*
X11127600Y-15138400D02*
G75*
G02*
X11427600Y-15138400I150000J0D01*
G01*
D12*
D13*
X11502600Y-11343300D02*
X11577600Y-11418300D01*
X11577600Y-11343300D02*
X11502600Y-11418300D01*
X11502600Y-11543300D02*
X11577600Y-11618300D01*
X11577600Y-11543300D02*
X11502600Y-11618300D01*
X11431900Y-12921900D02*
G75*
G02*
X11351900Y-12921900I-40000J0D01*
G01*
X11351900Y-12921900D02*
G75*
G02*
X11431900Y-12921900I40000J0D01*
G01*
X11431900Y-13671900D02*
G75*
G02*
X11351900Y-13671900I-40000J0D01*
G01*
X11351900Y-13671900D02*
G75*
G02*
X11431900Y-13671900I40000J0D01*
G01*
X12232000Y-8077200D02*
G75*
G02*
X12152000Y-8077200I-40000J0D01*
G01*
X12152000Y-8077200D02*
G75*
G02*
X12232000Y-8077200I40000J0D01*
G01*
X12232000Y-10363200D02*
G75*
G02*
X12152000Y-10363200I-40000J0D01*
G01*
X12152000Y-10363200D02*
G75*
G02*
X12232000Y-10363200I40000J0D01*
G01*
X12486000Y-8077200D02*
G75*
G02*
X12406000Y-8077200I-40000J0D01*
G01*
X12406000Y-8077200D02*
G75*
G02*
X12486000Y-8077200I40000J0D01*
G01*
X12486000Y-10363200D02*
G75*
G02*
X12406000Y-10363200I-40000J0D01*
G01*
X12406000Y-10363200D02*
G75*
G02*
X12486000Y-10363200I40000J0D01*
G01*
X12740000Y-8077200D02*
G75*
G02*
X12660000Y-8077200I-40000J0D01*
G01*
X12660000Y-8077200D02*
G75*
G02*
X12740000Y-8077200I40000J0D01*
G01*
X12740000Y-10363200D02*
G75*
G02*
X12660000Y-10363200I-40000J0D01*
G01*
X12660000Y-10363200D02*
G75*
G02*
X12740000Y-10363200I40000J0D01*
G01*
X12994000Y-8077200D02*
G75*
G02*
X12914000Y-8077200I-40000J0D01*
G01*
X12914000Y-8077200D02*
G75*
G02*
X12994000Y-8077200I40000J0D01*
G01*
X12994000Y-10363200D02*
G75*
G02*
X12914000Y-10363200I-40000J0D01*
G01*
X12914000Y-10363200D02*
G75*
G02*
X12994000Y-10363200I40000J0D01*
G01*
X13248000Y-8077200D02*
G75*
G02*
X13168000Y-8077200I-40000J0D01*
G01*
X13168000Y-8077200D02*
G75*
G02*
X13248000Y-8077200I40000J0D01*
G01*
X13248000Y-10363200D02*
G75*
G02*
X13168000Y-10363200I-40000J0D01*
G01*
X13168000Y-10363200D02*
G75*
G02*
X13248000Y-10363200I40000J0D01*
G01*
X13502000Y-8077200D02*
G75*
G02*
X13422000Y-8077200I-40000J0D01*
G01*
X13422000Y-8077200D02*
G75*
G02*
X13502000Y-8077200I40000J0D01*
G01*
X13502000Y-10363200D02*
G75*
G02*
X13422000Y-10363200I-40000J0D01*
G01*
X13422000Y-10363200D02*
G75*
G02*
X13502000Y-10363200I40000J0D01*
G01*
X13756000Y-8077200D02*
G75*
G02*
X13676000Y-8077200I-40000J0D01*
G01*
X13676000Y-8077200D02*
G75*
G02*
X13756000Y-8077200I40000J0D01*
G01*
X13756000Y-10363200D02*
G75*
G02*
X13676000Y-10363200I-40000J0D01*
G01*
X13676000Y-10363200D02*
G75*
G02*
X13756000Y-10363200I40000J0D01*
G01*
X14010000Y-8077200D02*
G75*
G02*
X13930000Y-8077200I-40000J0D01*
G01*
X13930000Y-8077200D02*
G75*
G02*
X14010000Y-8077200I40000J0D01*
G01*
X14010000Y-10363200D02*
G75*
G02*
X13930000Y-10363200I-40000J0D01*
G01*
X13930000Y-10363200D02*
G75*
G02*
X14010000Y-10363200I40000J0D01*
G01*
X14162400Y-7315200D02*
G75*
G02*
X14082400Y-7315200I-40000J0D01*
G01*
X14082400Y-7315200D02*
G75*
G02*
X14162400Y-7315200I40000J0D01*
G01*
X14264000Y-8077200D02*
G75*
G02*
X14184000Y-8077200I-40000J0D01*
G01*
X14184000Y-8077200D02*
G75*
G02*
X14264000Y-8077200I40000J0D01*
G01*
X14264000Y-10363200D02*
G75*
G02*
X14184000Y-10363200I-40000J0D01*
G01*
X14184000Y-10363200D02*
G75*
G02*
X14264000Y-10363200I40000J0D01*
G01*
X14416400Y-7315200D02*
G75*
G02*
X14336400Y-7315200I-40000J0D01*
G01*
X14336400Y-7315200D02*
G75*
G02*
X14416400Y-7315200I40000J0D01*
G01*
X14518000Y-8077200D02*
G75*
G02*
X14438000Y-8077200I-40000J0D01*
G01*
X14438000Y-8077200D02*
G75*
G02*
X14518000Y-8077200I40000J0D01*
G01*
X14518000Y-10363200D02*
G75*
G02*
X14438000Y-10363200I-40000J0D01*
G01*
X14438000Y-10363200D02*
G75*
G02*
X14518000Y-10363200I40000J0D01*
G01*
X14670400Y-7315200D02*
G75*
G02*
X14590400Y-7315200I-40000J0D01*
G01*
X14590400Y-7315200D02*
G75*
G02*
X14670400Y-7315200I40000J0D01*
G01*
X14772000Y-8077200D02*
G75*
G02*
X14692000Y-8077200I-40000J0D01*
G01*
X14692000Y-8077200D02*
G75*
G02*
X14772000Y-8077200I40000J0D01*
G01*
X14772000Y-10363200D02*
G75*
G02*
X14692000Y-10363200I-40000J0D01*
G01*
X14692000Y-10363200D02*
G75*
G02*
X14772000Y-10363200I40000J0D01*
G01*
X14924400Y-7315200D02*
G75*
G02*
X14844400Y-7315200I-40000J0D01*
G01*
X14844400Y-7315200D02*
G75*
G02*
X14924400Y-7315200I40000J0D01*
G01*
X15026000Y-8077200D02*
G75*
G02*
X14946000Y-8077200I-40000J0D01*
G01*
X14946000Y-8077200D02*
G75*
G02*
X15026000Y-8077200I40000J0D01*
G01*
X15026000Y-10363200D02*
G75*
G02*
X14946000Y-10363200I-40000J0D01*
G01*
X14946000Y-10363200D02*
G75*
G02*
X15026000Y-10363200I40000J0D01*
G01*
X15280000Y-8077200D02*
G75*
G02*
X15200000Y-8077200I-40000J0D01*
G01*
X15200000Y-8077200D02*
G75*
G02*
X15280000Y-8077200I40000J0D01*
G01*
X15280000Y-10363200D02*
G75*
G02*
X15200000Y-10363200I-40000J0D01*
G01*
X15200000Y-10363200D02*
G75*
G02*
X15280000Y-10363200I40000J0D01*
G01*
X15534000Y-8077200D02*
G75*
G02*
X15454000Y-8077200I-40000J0D01*
G01*
X15454000Y-8077200D02*
G75*
G02*
X15534000Y-8077200I40000J0D01*
G01*
X15534000Y-10363200D02*
G75*
G02*
X15454000Y-10363200I-40000J0D01*
G01*
X15454000Y-10363200D02*
G75*
G02*
X15534000Y-10363200I40000J0D01*
G01*
X15584800Y-7264400D02*
G75*
G02*
X15504800Y-7264400I-40000J0D01*
G01*
X15504800Y-7264400D02*
G75*
G02*
X15584800Y-7264400I40000J0D01*
G01*
X15584800Y-7620000D02*
G75*
G02*
X15504800Y-7620000I-40000J0D01*
G01*
X15504800Y-7620000D02*
G75*
G02*
X15584800Y-7620000I40000J0D01*
G01*
X15788000Y-8077200D02*
G75*
G02*
X15708000Y-8077200I-40000J0D01*
G01*
X15708000Y-8077200D02*
G75*
G02*
X15788000Y-8077200I40000J0D01*
G01*
X15788000Y-10363200D02*
G75*
G02*
X15708000Y-10363200I-40000J0D01*
G01*
X15708000Y-10363200D02*
G75*
G02*
X15788000Y-10363200I40000J0D01*
G01*
X16042000Y-8077200D02*
G75*
G02*
X15962000Y-8077200I-40000J0D01*
G01*
X15962000Y-8077200D02*
G75*
G02*
X16042000Y-8077200I40000J0D01*
G01*
X16042000Y-10363200D02*
G75*
G02*
X15962000Y-10363200I-40000J0D01*
G01*
X15962000Y-10363200D02*
G75*
G02*
X16042000Y-10363200I40000J0D01*
G01*
X16296000Y-8077200D02*
G75*
G02*
X16216000Y-8077200I-40000J0D01*
G01*
X16216000Y-8077200D02*
G75*
G02*
X16296000Y-8077200I40000J0D01*
G01*
X16296000Y-10363200D02*
G75*
G02*
X16216000Y-10363200I-40000J0D01*
G01*
X16216000Y-10363200D02*
G75*
G02*
X16296000Y-10363200I40000J0D01*
G01*
X16549728Y-8077568D02*
G75*
G02*
X16469728Y-8077568I-40000J0D01*
G01*
X16469728Y-8077568D02*
G75*
G02*
X16549728Y-8077568I40000J0D01*
G01*
X16550000Y-10363200D02*
G75*
G02*
X16470000Y-10363200I-40000J0D01*
G01*
X16470000Y-10363200D02*
G75*
G02*
X16550000Y-10363200I40000J0D01*
G01*
X16600800Y-7264400D02*
G75*
G02*
X16520800Y-7264400I-40000J0D01*
G01*
X16520800Y-7264400D02*
G75*
G02*
X16600800Y-7264400I40000J0D01*
G01*
X16600800Y-7620000D02*
G75*
G02*
X16520800Y-7620000I-40000J0D01*
G01*
X16520800Y-7620000D02*
G75*
G02*
X16600800Y-7620000I40000J0D01*
G01*
X16689700Y-13347700D02*
G75*
G02*
X16609700Y-13347700I-40000J0D01*
G01*
X16609700Y-13347700D02*
G75*
G02*
X16689700Y-13347700I40000J0D01*
G01*
X16689700Y-14363700D02*
G75*
G02*
X16609700Y-14363700I-40000J0D01*
G01*
X16609700Y-14363700D02*
G75*
G02*
X16689700Y-14363700I40000J0D01*
G01*
X16803728Y-8077568D02*
G75*
G02*
X16723728Y-8077568I-40000J0D01*
G01*
X16723728Y-8077568D02*
G75*
G02*
X16803728Y-8077568I40000J0D01*
G01*
X16804000Y-10363200D02*
G75*
G02*
X16724000Y-10363200I-40000J0D01*
G01*
X16724000Y-10363200D02*
G75*
G02*
X16804000Y-10363200I40000J0D01*
G01*
X17058000Y-11023600D02*
G75*
G02*
X16978000Y-11023600I-40000J0D01*
G01*
X16978000Y-11023600D02*
G75*
G02*
X17058000Y-11023600I40000J0D01*
G01*
X17058000Y-12039600D02*
G75*
G02*
X16978000Y-12039600I-40000J0D01*
G01*
X16978000Y-12039600D02*
G75*
G02*
X17058000Y-12039600I40000J0D01*
G01*
X17070700Y-13347700D02*
G75*
G02*
X16990700Y-13347700I-40000J0D01*
G01*
X16990700Y-13347700D02*
G75*
G02*
X17070700Y-13347700I40000J0D01*
G01*
X17070700Y-14363700D02*
G75*
G02*
X16990700Y-14363700I-40000J0D01*
G01*
X16990700Y-14363700D02*
G75*
G02*
X17070700Y-14363700I40000J0D01*
G01*
X17362800Y-10261600D02*
G75*
G02*
X17282800Y-10261600I-40000J0D01*
G01*
X17282800Y-10261600D02*
G75*
G02*
X17362800Y-10261600I40000J0D01*
G01*
X17362800Y-11277600D02*
G75*
G02*
X17282800Y-11277600I-40000J0D01*
G01*
X17282800Y-11277600D02*
G75*
G02*
X17362800Y-11277600I40000J0D01*
G01*
X17667600Y-9550400D02*
G75*
G02*
X17587600Y-9550400I-40000J0D01*
G01*
X17587600Y-9550400D02*
G75*
G02*
X17667600Y-9550400I40000J0D01*
G01*
X17667600Y-10566400D02*
G75*
G02*
X17587600Y-10566400I-40000J0D01*
G01*
X17587600Y-10566400D02*
G75*
G02*
X17667600Y-10566400I40000J0D01*
G01*
X11714980Y-7076080D02*
X11714980Y-7166080D01*
X11669980Y-7121080D02*
X11759980Y-7121080D01*
X11810500Y-15279900D02*
X11810500Y-15369900D01*
X11765500Y-15324900D02*
X11855500Y-15324900D01*
X11968980Y-7076080D02*
X11968980Y-7166080D01*
X11923980Y-7121080D02*
X12013980Y-7121080D01*
X12064500Y-15279900D02*
X12064500Y-15369900D01*
X12019500Y-15324900D02*
X12109500Y-15324900D01*
X16941800Y-15279900D02*
X16941800Y-15369900D01*
X16896800Y-15324900D02*
X16986800Y-15324900D01*
X17035780Y-7076080D02*
X17035780Y-7166080D01*
X16990780Y-7121080D02*
X17080780Y-7121080D01*
X17195800Y-15279900D02*
X17195800Y-15369900D01*
X17150800Y-15324900D02*
X17240800Y-15324900D01*
X17289780Y-7076080D02*
X17289780Y-7166080D01*
X17244780Y-7121080D02*
X17334780Y-7121080D01*
X17759588Y-11979188D02*
X17759588Y-11912012D01*
X17692412Y-11912012D01*
X17692412Y-11979188D01*
X17759588Y-11979188D01*
X17759588Y-12229188D02*
X17759588Y-12162012D01*
X17692412Y-12162012D01*
X17692412Y-12229188D01*
X17759588Y-12229188D01*
X17759588Y-12479188D02*
X17759588Y-12412012D01*
X17692412Y-12412012D01*
X17692412Y-12479188D01*
X17759588Y-12479188D01*
X17759588Y-12729188D02*
X17759588Y-12662012D01*
X17692412Y-12662012D01*
X17692412Y-12729188D01*
X17759588Y-12729188D01*
X17759588Y-12979188D02*
X17759588Y-12912012D01*
X17692412Y-12912012D01*
X17692412Y-12979188D01*
X17759588Y-12979188D01*
X17759588Y-13229188D02*
X17759588Y-13162012D01*
X17692412Y-13162012D01*
X17692412Y-13229188D01*
X17759588Y-13229188D01*
X11379200Y-12266900D02*
X11429200Y-12216900D01*
X11379200Y-12166900D01*
X11329200Y-12216900D01*
X11379200Y-12266900D01*
X11379200Y-12520900D02*
X11429200Y-12470900D01*
X11379200Y-12420900D01*
X11329200Y-12470900D01*
X11379200Y-12520900D01*
D14*
X12340200Y-12068400D02*
X12450200Y-12178400D01*
X12450200Y-12068400D02*
X12340200Y-12178400D01*
X12450200Y-12123400D02*
G75*
G02*
X12340200Y-12123400I-55000J0D01*
G01*
X12340200Y-12123400D02*
G75*
G02*
X12450200Y-12123400I55000J0D01*
G01*
X12340200Y-12543400D02*
X12450200Y-12653400D01*
X12450200Y-12543400D02*
X12340200Y-12653400D01*
X12450200Y-12598400D02*
G75*
G02*
X12340200Y-12598400I-55000J0D01*
G01*
X12340200Y-12598400D02*
G75*
G02*
X12450200Y-12598400I55000J0D01*
G01*
X12625200Y-11113400D02*
X12735200Y-11223400D01*
X12735200Y-11113400D02*
X12625200Y-11223400D01*
X12735200Y-11168400D02*
G75*
G02*
X12625200Y-11168400I-55000J0D01*
G01*
X12625200Y-11168400D02*
G75*
G02*
X12735200Y-11168400I55000J0D01*
G01*
X12625200Y-11373400D02*
X12735200Y-11483400D01*
X12735200Y-11373400D02*
X12625200Y-11483400D01*
X12735200Y-11428400D02*
G75*
G02*
X12625200Y-11428400I-55000J0D01*
G01*
X12625200Y-11428400D02*
G75*
G02*
X12735200Y-11428400I55000J0D01*
G01*
X12880200Y-11113400D02*
X12990200Y-11223400D01*
X12990200Y-11113400D02*
X12880200Y-11223400D01*
X12990200Y-11168400D02*
G75*
G02*
X12880200Y-11168400I-55000J0D01*
G01*
X12880200Y-11168400D02*
G75*
G02*
X12990200Y-11168400I55000J0D01*
G01*
X13130200Y-11118400D02*
X13240200Y-11228400D01*
X13240200Y-11118400D02*
X13130200Y-11228400D01*
X13240200Y-11173400D02*
G75*
G02*
X13130200Y-11173400I-55000J0D01*
G01*
X13130200Y-11173400D02*
G75*
G02*
X13240200Y-11173400I55000J0D01*
G01*
X13380200Y-11118400D02*
X13490200Y-11228400D01*
X13490200Y-11118400D02*
X13380200Y-11228400D01*
X13490200Y-11173400D02*
G75*
G02*
X13380200Y-11173400I-55000J0D01*
G01*
X13380200Y-11173400D02*
G75*
G02*
X13490200Y-11173400I55000J0D01*
G01*
X13635200Y-11118400D02*
X13745200Y-11228400D01*
X13745200Y-11118400D02*
X13635200Y-11228400D01*
X13745200Y-11173400D02*
G75*
G02*
X13635200Y-11173400I-55000J0D01*
G01*
X13635200Y-11173400D02*
G75*
G02*
X13745200Y-11173400I55000J0D01*
G01*
X13890200Y-11118400D02*
X14000200Y-11228400D01*
X14000200Y-11118400D02*
X13890200Y-11228400D01*
X14000200Y-11173400D02*
G75*
G02*
X13890200Y-11173400I-55000J0D01*
G01*
X13890200Y-11173400D02*
G75*
G02*
X14000200Y-11173400I55000J0D01*
G01*
X13890200Y-11373400D02*
X14000200Y-11483400D01*
X14000200Y-11373400D02*
X13890200Y-11483400D01*
X14000200Y-11428400D02*
G75*
G02*
X13890200Y-11428400I-55000J0D01*
G01*
X13890200Y-11428400D02*
G75*
G02*
X14000200Y-11428400I55000J0D01*
G01*
X14365200Y-11343400D02*
X14475200Y-11453400D01*
X14475200Y-11343400D02*
X14365200Y-11453400D01*
X14475200Y-11398400D02*
G75*
G02*
X14365200Y-11398400I-55000J0D01*
G01*
X14365200Y-11398400D02*
G75*
G02*
X14475200Y-11398400I55000J0D01*
G01*
X14855200Y-11343400D02*
X14965200Y-11453400D01*
X14965200Y-11343400D02*
X14855200Y-11453400D01*
X14965200Y-11398400D02*
G75*
G02*
X14855200Y-11398400I-55000J0D01*
G01*
X14855200Y-11398400D02*
G75*
G02*
X14965200Y-11398400I55000J0D01*
G01*
X15345200Y-11343400D02*
X15455200Y-11453400D01*
X15455200Y-11343400D02*
X15345200Y-11453400D01*
X15455200Y-11398400D02*
G75*
G02*
X15345200Y-11398400I-55000J0D01*
G01*
X15345200Y-11398400D02*
G75*
G02*
X15455200Y-11398400I55000J0D01*
G01*
X15840200Y-12068400D02*
X15950200Y-12178400D01*
X15950200Y-12068400D02*
X15840200Y-12178400D01*
X15950200Y-12123400D02*
G75*
G02*
X15840200Y-12123400I-55000J0D01*
G01*
X15840200Y-12123400D02*
G75*
G02*
X15950200Y-12123400I55000J0D01*
G01*
X15840200Y-12548400D02*
X15950200Y-12658400D01*
X15950200Y-12548400D02*
X15840200Y-12658400D01*
X15950200Y-12603400D02*
G75*
G02*
X15840200Y-12603400I-55000J0D01*
G01*
X15840200Y-12603400D02*
G75*
G02*
X15950200Y-12603400I55000J0D01*
G01*
D12*
X11116977Y-15871284D02*
X11116977Y-15671284D01*
X11116977Y-15671284D02*
X11164596Y-15671284D01*
X11164596Y-15671284D02*
X11193167Y-15680808D01*
X11193167Y-15680808D02*
X11212215Y-15699855D01*
X11212215Y-15699855D02*
X11221739Y-15718903D01*
X11221739Y-15718903D02*
X11231262Y-15756998D01*
X11231262Y-15756998D02*
X11231262Y-15785569D01*
X11231262Y-15785569D02*
X11221739Y-15823665D01*
X11221739Y-15823665D02*
X11212215Y-15842712D01*
X11212215Y-15842712D02*
X11193167Y-15861760D01*
X11193167Y-15861760D02*
X11164596Y-15871284D01*
X11164596Y-15871284D02*
X11116977Y-15871284D01*
X11316977Y-15871284D02*
X11316977Y-15737950D01*
X11316977Y-15776046D02*
X11326501Y-15756998D01*
X11326501Y-15756998D02*
X11336024Y-15747474D01*
X11336024Y-15747474D02*
X11355072Y-15737950D01*
X11355072Y-15737950D02*
X11374120Y-15737950D01*
X11440786Y-15871284D02*
X11440786Y-15737950D01*
X11440786Y-15671284D02*
X11431262Y-15680808D01*
X11431262Y-15680808D02*
X11440786Y-15690331D01*
X11440786Y-15690331D02*
X11450310Y-15680808D01*
X11450310Y-15680808D02*
X11440786Y-15671284D01*
X11440786Y-15671284D02*
X11440786Y-15690331D01*
X11564596Y-15871284D02*
X11545548Y-15861760D01*
X11545548Y-15861760D02*
X11536024Y-15842712D01*
X11536024Y-15842712D02*
X11536024Y-15671284D01*
X11669358Y-15871284D02*
X11650310Y-15861760D01*
X11650310Y-15861760D02*
X11640786Y-15842712D01*
X11640786Y-15842712D02*
X11640786Y-15671284D01*
X11897929Y-15871284D02*
X11897929Y-15671284D01*
X11897929Y-15671284D02*
X11964596Y-15814141D01*
X11964596Y-15814141D02*
X12031262Y-15671284D01*
X12031262Y-15671284D02*
X12031262Y-15871284D01*
X12212215Y-15871284D02*
X12212215Y-15766522D01*
X12212215Y-15766522D02*
X12202691Y-15747474D01*
X12202691Y-15747474D02*
X12183643Y-15737950D01*
X12183643Y-15737950D02*
X12145548Y-15737950D01*
X12145548Y-15737950D02*
X12126501Y-15747474D01*
X12212215Y-15861760D02*
X12193167Y-15871284D01*
X12193167Y-15871284D02*
X12145548Y-15871284D01*
X12145548Y-15871284D02*
X12126501Y-15861760D01*
X12126501Y-15861760D02*
X12116977Y-15842712D01*
X12116977Y-15842712D02*
X12116977Y-15823665D01*
X12116977Y-15823665D02*
X12126501Y-15804617D01*
X12126501Y-15804617D02*
X12145548Y-15795093D01*
X12145548Y-15795093D02*
X12193167Y-15795093D01*
X12193167Y-15795093D02*
X12212215Y-15785569D01*
X12307453Y-15737950D02*
X12307453Y-15937950D01*
X12307453Y-15747474D02*
X12326501Y-15737950D01*
X12326501Y-15737950D02*
X12364596Y-15737950D01*
X12364596Y-15737950D02*
X12383643Y-15747474D01*
X12383643Y-15747474D02*
X12393167Y-15756998D01*
X12393167Y-15756998D02*
X12402691Y-15776046D01*
X12402691Y-15776046D02*
X12402691Y-15833188D01*
X12402691Y-15833188D02*
X12393167Y-15852236D01*
X12393167Y-15852236D02*
X12383643Y-15861760D01*
X12383643Y-15861760D02*
X12364596Y-15871284D01*
X12364596Y-15871284D02*
X12326501Y-15871284D01*
X12326501Y-15871284D02*
X12307453Y-15861760D01*
X12488405Y-15852236D02*
X12497929Y-15861760D01*
X12497929Y-15861760D02*
X12488405Y-15871284D01*
X12488405Y-15871284D02*
X12478882Y-15861760D01*
X12478882Y-15861760D02*
X12488405Y-15852236D01*
X12488405Y-15852236D02*
X12488405Y-15871284D01*
X12488405Y-15747474D02*
X12497929Y-15756998D01*
X12497929Y-15756998D02*
X12488405Y-15766522D01*
X12488405Y-15766522D02*
X12478882Y-15756998D01*
X12478882Y-15756998D02*
X12488405Y-15747474D01*
X12488405Y-15747474D02*
X12488405Y-15766522D01*
D13*
X10781200Y-16162300D02*
X10856200Y-16237300D01*
X10856200Y-16162300D02*
X10781200Y-16237300D01*
D12*
X11155072Y-16091284D02*
X11174120Y-16091284D01*
X11174120Y-16091284D02*
X11193167Y-16100808D01*
X11193167Y-16100808D02*
X11202691Y-16110331D01*
X11202691Y-16110331D02*
X11212215Y-16129379D01*
X11212215Y-16129379D02*
X11221739Y-16167474D01*
X11221739Y-16167474D02*
X11221739Y-16215093D01*
X11221739Y-16215093D02*
X11212215Y-16253188D01*
X11212215Y-16253188D02*
X11202691Y-16272236D01*
X11202691Y-16272236D02*
X11193167Y-16281760D01*
X11193167Y-16281760D02*
X11174120Y-16291284D01*
X11174120Y-16291284D02*
X11155072Y-16291284D01*
X11155072Y-16291284D02*
X11136024Y-16281760D01*
X11136024Y-16281760D02*
X11126501Y-16272236D01*
X11126501Y-16272236D02*
X11116977Y-16253188D01*
X11116977Y-16253188D02*
X11107453Y-16215093D01*
X11107453Y-16215093D02*
X11107453Y-16167474D01*
X11107453Y-16167474D02*
X11116977Y-16129379D01*
X11116977Y-16129379D02*
X11126501Y-16110331D01*
X11126501Y-16110331D02*
X11136024Y-16100808D01*
X11136024Y-16100808D02*
X11155072Y-16091284D01*
X11307453Y-16272236D02*
X11316977Y-16281760D01*
X11316977Y-16281760D02*
X11307453Y-16291284D01*
X11307453Y-16291284D02*
X11297929Y-16281760D01*
X11297929Y-16281760D02*
X11307453Y-16272236D01*
X11307453Y-16272236D02*
X11307453Y-16291284D01*
X11383643Y-16091284D02*
X11516977Y-16091284D01*
X11516977Y-16091284D02*
X11431262Y-16291284D01*
X11688405Y-16091284D02*
X11593167Y-16091284D01*
X11593167Y-16091284D02*
X11583643Y-16186522D01*
X11583643Y-16186522D02*
X11593167Y-16176998D01*
X11593167Y-16176998D02*
X11612215Y-16167474D01*
X11612215Y-16167474D02*
X11659834Y-16167474D01*
X11659834Y-16167474D02*
X11678882Y-16176998D01*
X11678882Y-16176998D02*
X11688405Y-16186522D01*
X11688405Y-16186522D02*
X11697929Y-16205569D01*
X11697929Y-16205569D02*
X11697929Y-16253188D01*
X11697929Y-16253188D02*
X11688405Y-16272236D01*
X11688405Y-16272236D02*
X11678882Y-16281760D01*
X11678882Y-16281760D02*
X11659834Y-16291284D01*
X11659834Y-16291284D02*
X11612215Y-16291284D01*
X11612215Y-16291284D02*
X11593167Y-16281760D01*
X11593167Y-16281760D02*
X11583643Y-16272236D01*
X11821739Y-16091284D02*
X11840786Y-16091284D01*
X11840786Y-16091284D02*
X11859834Y-16100808D01*
X11859834Y-16100808D02*
X11869358Y-16110331D01*
X11869358Y-16110331D02*
X11878882Y-16129379D01*
X11878882Y-16129379D02*
X11888405Y-16167474D01*
X11888405Y-16167474D02*
X11888405Y-16215093D01*
X11888405Y-16215093D02*
X11878882Y-16253188D01*
X11878882Y-16253188D02*
X11869358Y-16272236D01*
X11869358Y-16272236D02*
X11859834Y-16281760D01*
X11859834Y-16281760D02*
X11840786Y-16291284D01*
X11840786Y-16291284D02*
X11821739Y-16291284D01*
X11821739Y-16291284D02*
X11802691Y-16281760D01*
X11802691Y-16281760D02*
X11793167Y-16272236D01*
X11793167Y-16272236D02*
X11783643Y-16253188D01*
X11783643Y-16253188D02*
X11774120Y-16215093D01*
X11774120Y-16215093D02*
X11774120Y-16167474D01*
X11774120Y-16167474D02*
X11783643Y-16129379D01*
X11783643Y-16129379D02*
X11793167Y-16110331D01*
X11793167Y-16110331D02*
X11802691Y-16100808D01*
X11802691Y-16100808D02*
X11821739Y-16091284D01*
X11974120Y-16291284D02*
X11974120Y-16157950D01*
X11974120Y-16176998D02*
X11983643Y-16167474D01*
X11983643Y-16167474D02*
X12002691Y-16157950D01*
X12002691Y-16157950D02*
X12031263Y-16157950D01*
X12031263Y-16157950D02*
X12050310Y-16167474D01*
X12050310Y-16167474D02*
X12059834Y-16186522D01*
X12059834Y-16186522D02*
X12059834Y-16291284D01*
X12059834Y-16186522D02*
X12069358Y-16167474D01*
X12069358Y-16167474D02*
X12088405Y-16157950D01*
X12088405Y-16157950D02*
X12116977Y-16157950D01*
X12116977Y-16157950D02*
X12136024Y-16167474D01*
X12136024Y-16167474D02*
X12145548Y-16186522D01*
X12145548Y-16186522D02*
X12145548Y-16291284D01*
X12240786Y-16291284D02*
X12240786Y-16157950D01*
X12240786Y-16176998D02*
X12250310Y-16167474D01*
X12250310Y-16167474D02*
X12269358Y-16157950D01*
X12269358Y-16157950D02*
X12297929Y-16157950D01*
X12297929Y-16157950D02*
X12316977Y-16167474D01*
X12316977Y-16167474D02*
X12326501Y-16186522D01*
X12326501Y-16186522D02*
X12326501Y-16291284D01*
X12326501Y-16186522D02*
X12336024Y-16167474D01*
X12336024Y-16167474D02*
X12355072Y-16157950D01*
X12355072Y-16157950D02*
X12383643Y-16157950D01*
X12383643Y-16157950D02*
X12402691Y-16167474D01*
X12402691Y-16167474D02*
X12412215Y-16186522D01*
X12412215Y-16186522D02*
X12412215Y-16291284D01*
X12802691Y-16081760D02*
X12631263Y-16338903D01*
X13059834Y-16091284D02*
X13078882Y-16091284D01*
X13078882Y-16091284D02*
X13097929Y-16100808D01*
X13097929Y-16100808D02*
X13107453Y-16110331D01*
X13107453Y-16110331D02*
X13116977Y-16129379D01*
X13116977Y-16129379D02*
X13126501Y-16167474D01*
X13126501Y-16167474D02*
X13126501Y-16215093D01*
X13126501Y-16215093D02*
X13116977Y-16253188D01*
X13116977Y-16253188D02*
X13107453Y-16272236D01*
X13107453Y-16272236D02*
X13097929Y-16281760D01*
X13097929Y-16281760D02*
X13078882Y-16291284D01*
X13078882Y-16291284D02*
X13059834Y-16291284D01*
X13059834Y-16291284D02*
X13040786Y-16281760D01*
X13040786Y-16281760D02*
X13031263Y-16272236D01*
X13031263Y-16272236D02*
X13021739Y-16253188D01*
X13021739Y-16253188D02*
X13012215Y-16215093D01*
X13012215Y-16215093D02*
X13012215Y-16167474D01*
X13012215Y-16167474D02*
X13021739Y-16129379D01*
X13021739Y-16129379D02*
X13031263Y-16110331D01*
X13031263Y-16110331D02*
X13040786Y-16100808D01*
X13040786Y-16100808D02*
X13059834Y-16091284D01*
X13212215Y-16272236D02*
X13221739Y-16281760D01*
X13221739Y-16281760D02*
X13212215Y-16291284D01*
X13212215Y-16291284D02*
X13202691Y-16281760D01*
X13202691Y-16281760D02*
X13212215Y-16272236D01*
X13212215Y-16272236D02*
X13212215Y-16291284D01*
X13345548Y-16091284D02*
X13364596Y-16091284D01*
X13364596Y-16091284D02*
X13383644Y-16100808D01*
X13383644Y-16100808D02*
X13393167Y-16110331D01*
X13393167Y-16110331D02*
X13402691Y-16129379D01*
X13402691Y-16129379D02*
X13412215Y-16167474D01*
X13412215Y-16167474D02*
X13412215Y-16215093D01*
X13412215Y-16215093D02*
X13402691Y-16253188D01*
X13402691Y-16253188D02*
X13393167Y-16272236D01*
X13393167Y-16272236D02*
X13383644Y-16281760D01*
X13383644Y-16281760D02*
X13364596Y-16291284D01*
X13364596Y-16291284D02*
X13345548Y-16291284D01*
X13345548Y-16291284D02*
X13326501Y-16281760D01*
X13326501Y-16281760D02*
X13316977Y-16272236D01*
X13316977Y-16272236D02*
X13307453Y-16253188D01*
X13307453Y-16253188D02*
X13297929Y-16215093D01*
X13297929Y-16215093D02*
X13297929Y-16167474D01*
X13297929Y-16167474D02*
X13307453Y-16129379D01*
X13307453Y-16129379D02*
X13316977Y-16110331D01*
X13316977Y-16110331D02*
X13326501Y-16100808D01*
X13326501Y-16100808D02*
X13345548Y-16091284D01*
X13488406Y-16110331D02*
X13497929Y-16100808D01*
X13497929Y-16100808D02*
X13516977Y-16091284D01*
X13516977Y-16091284D02*
X13564596Y-16091284D01*
X13564596Y-16091284D02*
X13583644Y-16100808D01*
X13583644Y-16100808D02*
X13593167Y-16110331D01*
X13593167Y-16110331D02*
X13602691Y-16129379D01*
X13602691Y-16129379D02*
X13602691Y-16148427D01*
X13602691Y-16148427D02*
X13593167Y-16176998D01*
X13593167Y-16176998D02*
X13478882Y-16291284D01*
X13478882Y-16291284D02*
X13602691Y-16291284D01*
X13697929Y-16291284D02*
X13736025Y-16291284D01*
X13736025Y-16291284D02*
X13755072Y-16281760D01*
X13755072Y-16281760D02*
X13764596Y-16272236D01*
X13764596Y-16272236D02*
X13783644Y-16243665D01*
X13783644Y-16243665D02*
X13793167Y-16205569D01*
X13793167Y-16205569D02*
X13793167Y-16129379D01*
X13793167Y-16129379D02*
X13783644Y-16110331D01*
X13783644Y-16110331D02*
X13774120Y-16100808D01*
X13774120Y-16100808D02*
X13755072Y-16091284D01*
X13755072Y-16091284D02*
X13716977Y-16091284D01*
X13716977Y-16091284D02*
X13697929Y-16100808D01*
X13697929Y-16100808D02*
X13688406Y-16110331D01*
X13688406Y-16110331D02*
X13678882Y-16129379D01*
X13678882Y-16129379D02*
X13678882Y-16176998D01*
X13678882Y-16176998D02*
X13688406Y-16196046D01*
X13688406Y-16196046D02*
X13697929Y-16205569D01*
X13697929Y-16205569D02*
X13716977Y-16215093D01*
X13716977Y-16215093D02*
X13755072Y-16215093D01*
X13755072Y-16215093D02*
X13774120Y-16205569D01*
X13774120Y-16205569D02*
X13783644Y-16196046D01*
X13783644Y-16196046D02*
X13793167Y-16176998D01*
X13974120Y-16091284D02*
X13878882Y-16091284D01*
X13878882Y-16091284D02*
X13869358Y-16186522D01*
X13869358Y-16186522D02*
X13878882Y-16176998D01*
X13878882Y-16176998D02*
X13897929Y-16167474D01*
X13897929Y-16167474D02*
X13945548Y-16167474D01*
X13945548Y-16167474D02*
X13964596Y-16176998D01*
X13964596Y-16176998D02*
X13974120Y-16186522D01*
X13974120Y-16186522D02*
X13983644Y-16205569D01*
X13983644Y-16205569D02*
X13983644Y-16253188D01*
X13983644Y-16253188D02*
X13974120Y-16272236D01*
X13974120Y-16272236D02*
X13964596Y-16281760D01*
X13964596Y-16281760D02*
X13945548Y-16291284D01*
X13945548Y-16291284D02*
X13897929Y-16291284D01*
X13897929Y-16291284D02*
X13878882Y-16281760D01*
X13878882Y-16281760D02*
X13869358Y-16272236D01*
X14059834Y-16091284D02*
X14059834Y-16129379D01*
X14136025Y-16091284D02*
X14136025Y-16129379D01*
X14431263Y-16367474D02*
X14421739Y-16357950D01*
X14421739Y-16357950D02*
X14402691Y-16329379D01*
X14402691Y-16329379D02*
X14393168Y-16310331D01*
X14393168Y-16310331D02*
X14383644Y-16281760D01*
X14383644Y-16281760D02*
X14374120Y-16234141D01*
X14374120Y-16234141D02*
X14374120Y-16196046D01*
X14374120Y-16196046D02*
X14383644Y-16148427D01*
X14383644Y-16148427D02*
X14393168Y-16119855D01*
X14393168Y-16119855D02*
X14402691Y-16100808D01*
X14402691Y-16100808D02*
X14421739Y-16072236D01*
X14421739Y-16072236D02*
X14431263Y-16062712D01*
X14497929Y-16110331D02*
X14507453Y-16100808D01*
X14507453Y-16100808D02*
X14526501Y-16091284D01*
X14526501Y-16091284D02*
X14574120Y-16091284D01*
X14574120Y-16091284D02*
X14593168Y-16100808D01*
X14593168Y-16100808D02*
X14602691Y-16110331D01*
X14602691Y-16110331D02*
X14612215Y-16129379D01*
X14612215Y-16129379D02*
X14612215Y-16148427D01*
X14612215Y-16148427D02*
X14602691Y-16176998D01*
X14602691Y-16176998D02*
X14488406Y-16291284D01*
X14488406Y-16291284D02*
X14612215Y-16291284D01*
X14850310Y-16291284D02*
X14850310Y-16091284D01*
X14936025Y-16291284D02*
X14936025Y-16186522D01*
X14936025Y-16186522D02*
X14926501Y-16167474D01*
X14926501Y-16167474D02*
X14907453Y-16157950D01*
X14907453Y-16157950D02*
X14878882Y-16157950D01*
X14878882Y-16157950D02*
X14859834Y-16167474D01*
X14859834Y-16167474D02*
X14850310Y-16176998D01*
X15059834Y-16291284D02*
X15040787Y-16281760D01*
X15040787Y-16281760D02*
X15031263Y-16272236D01*
X15031263Y-16272236D02*
X15021739Y-16253188D01*
X15021739Y-16253188D02*
X15021739Y-16196046D01*
X15021739Y-16196046D02*
X15031263Y-16176998D01*
X15031263Y-16176998D02*
X15040787Y-16167474D01*
X15040787Y-16167474D02*
X15059834Y-16157950D01*
X15059834Y-16157950D02*
X15088406Y-16157950D01*
X15088406Y-16157950D02*
X15107453Y-16167474D01*
X15107453Y-16167474D02*
X15116977Y-16176998D01*
X15116977Y-16176998D02*
X15126501Y-16196046D01*
X15126501Y-16196046D02*
X15126501Y-16253188D01*
X15126501Y-16253188D02*
X15116977Y-16272236D01*
X15116977Y-16272236D02*
X15107453Y-16281760D01*
X15107453Y-16281760D02*
X15088406Y-16291284D01*
X15088406Y-16291284D02*
X15059834Y-16291284D01*
X15240787Y-16291284D02*
X15221739Y-16281760D01*
X15221739Y-16281760D02*
X15212215Y-16262712D01*
X15212215Y-16262712D02*
X15212215Y-16091284D01*
X15393168Y-16281760D02*
X15374120Y-16291284D01*
X15374120Y-16291284D02*
X15336025Y-16291284D01*
X15336025Y-16291284D02*
X15316977Y-16281760D01*
X15316977Y-16281760D02*
X15307453Y-16262712D01*
X15307453Y-16262712D02*
X15307453Y-16186522D01*
X15307453Y-16186522D02*
X15316977Y-16167474D01*
X15316977Y-16167474D02*
X15336025Y-16157950D01*
X15336025Y-16157950D02*
X15374120Y-16157950D01*
X15374120Y-16157950D02*
X15393168Y-16167474D01*
X15393168Y-16167474D02*
X15402691Y-16186522D01*
X15402691Y-16186522D02*
X15402691Y-16205569D01*
X15402691Y-16205569D02*
X15307453Y-16224617D01*
X15478882Y-16281760D02*
X15497930Y-16291284D01*
X15497930Y-16291284D02*
X15536025Y-16291284D01*
X15536025Y-16291284D02*
X15555072Y-16281760D01*
X15555072Y-16281760D02*
X15564596Y-16262712D01*
X15564596Y-16262712D02*
X15564596Y-16253188D01*
X15564596Y-16253188D02*
X15555072Y-16234141D01*
X15555072Y-16234141D02*
X15536025Y-16224617D01*
X15536025Y-16224617D02*
X15507453Y-16224617D01*
X15507453Y-16224617D02*
X15488406Y-16215093D01*
X15488406Y-16215093D02*
X15478882Y-16196046D01*
X15478882Y-16196046D02*
X15478882Y-16186522D01*
X15478882Y-16186522D02*
X15488406Y-16167474D01*
X15488406Y-16167474D02*
X15507453Y-16157950D01*
X15507453Y-16157950D02*
X15536025Y-16157950D01*
X15536025Y-16157950D02*
X15555072Y-16167474D01*
X15631263Y-16367474D02*
X15640787Y-16357950D01*
X15640787Y-16357950D02*
X15659834Y-16329379D01*
X15659834Y-16329379D02*
X15669358Y-16310331D01*
X15669358Y-16310331D02*
X15678882Y-16281760D01*
X15678882Y-16281760D02*
X15688406Y-16234141D01*
X15688406Y-16234141D02*
X15688406Y-16196046D01*
X15688406Y-16196046D02*
X15678882Y-16148427D01*
X15678882Y-16148427D02*
X15669358Y-16119855D01*
X15669358Y-16119855D02*
X15659834Y-16100808D01*
X15659834Y-16100808D02*
X15640787Y-16072236D01*
X15640787Y-16072236D02*
X15631263Y-16062712D01*
D13*
X10856200Y-16463800D02*
G75*
G02*
X10776200Y-16463800I-40000J0D01*
G01*
X10776200Y-16463800D02*
G75*
G02*
X10856200Y-16463800I40000J0D01*
G01*
D12*
X11155072Y-16355284D02*
X11174120Y-16355284D01*
X11174120Y-16355284D02*
X11193167Y-16364808D01*
X11193167Y-16364808D02*
X11202691Y-16374331D01*
X11202691Y-16374331D02*
X11212215Y-16393379D01*
X11212215Y-16393379D02*
X11221739Y-16431474D01*
X11221739Y-16431474D02*
X11221739Y-16479093D01*
X11221739Y-16479093D02*
X11212215Y-16517188D01*
X11212215Y-16517188D02*
X11202691Y-16536236D01*
X11202691Y-16536236D02*
X11193167Y-16545760D01*
X11193167Y-16545760D02*
X11174120Y-16555284D01*
X11174120Y-16555284D02*
X11155072Y-16555284D01*
X11155072Y-16555284D02*
X11136024Y-16545760D01*
X11136024Y-16545760D02*
X11126501Y-16536236D01*
X11126501Y-16536236D02*
X11116977Y-16517188D01*
X11116977Y-16517188D02*
X11107453Y-16479093D01*
X11107453Y-16479093D02*
X11107453Y-16431474D01*
X11107453Y-16431474D02*
X11116977Y-16393379D01*
X11116977Y-16393379D02*
X11126501Y-16374331D01*
X11126501Y-16374331D02*
X11136024Y-16364808D01*
X11136024Y-16364808D02*
X11155072Y-16355284D01*
X11307453Y-16536236D02*
X11316977Y-16545760D01*
X11316977Y-16545760D02*
X11307453Y-16555284D01*
X11307453Y-16555284D02*
X11297929Y-16545760D01*
X11297929Y-16545760D02*
X11307453Y-16536236D01*
X11307453Y-16536236D02*
X11307453Y-16555284D01*
X11431262Y-16440998D02*
X11412215Y-16431474D01*
X11412215Y-16431474D02*
X11402691Y-16421950D01*
X11402691Y-16421950D02*
X11393167Y-16402903D01*
X11393167Y-16402903D02*
X11393167Y-16393379D01*
X11393167Y-16393379D02*
X11402691Y-16374331D01*
X11402691Y-16374331D02*
X11412215Y-16364808D01*
X11412215Y-16364808D02*
X11431262Y-16355284D01*
X11431262Y-16355284D02*
X11469358Y-16355284D01*
X11469358Y-16355284D02*
X11488405Y-16364808D01*
X11488405Y-16364808D02*
X11497929Y-16374331D01*
X11497929Y-16374331D02*
X11507453Y-16393379D01*
X11507453Y-16393379D02*
X11507453Y-16402903D01*
X11507453Y-16402903D02*
X11497929Y-16421950D01*
X11497929Y-16421950D02*
X11488405Y-16431474D01*
X11488405Y-16431474D02*
X11469358Y-16440998D01*
X11469358Y-16440998D02*
X11431262Y-16440998D01*
X11431262Y-16440998D02*
X11412215Y-16450522D01*
X11412215Y-16450522D02*
X11402691Y-16460046D01*
X11402691Y-16460046D02*
X11393167Y-16479093D01*
X11393167Y-16479093D02*
X11393167Y-16517188D01*
X11393167Y-16517188D02*
X11402691Y-16536236D01*
X11402691Y-16536236D02*
X11412215Y-16545760D01*
X11412215Y-16545760D02*
X11431262Y-16555284D01*
X11431262Y-16555284D02*
X11469358Y-16555284D01*
X11469358Y-16555284D02*
X11488405Y-16545760D01*
X11488405Y-16545760D02*
X11497929Y-16536236D01*
X11497929Y-16536236D02*
X11507453Y-16517188D01*
X11507453Y-16517188D02*
X11507453Y-16479093D01*
X11507453Y-16479093D02*
X11497929Y-16460046D01*
X11497929Y-16460046D02*
X11488405Y-16450522D01*
X11488405Y-16450522D02*
X11469358Y-16440998D01*
X11631262Y-16355284D02*
X11650310Y-16355284D01*
X11650310Y-16355284D02*
X11669358Y-16364808D01*
X11669358Y-16364808D02*
X11678882Y-16374331D01*
X11678882Y-16374331D02*
X11688405Y-16393379D01*
X11688405Y-16393379D02*
X11697929Y-16431474D01*
X11697929Y-16431474D02*
X11697929Y-16479093D01*
X11697929Y-16479093D02*
X11688405Y-16517188D01*
X11688405Y-16517188D02*
X11678882Y-16536236D01*
X11678882Y-16536236D02*
X11669358Y-16545760D01*
X11669358Y-16545760D02*
X11650310Y-16555284D01*
X11650310Y-16555284D02*
X11631262Y-16555284D01*
X11631262Y-16555284D02*
X11612215Y-16545760D01*
X11612215Y-16545760D02*
X11602691Y-16536236D01*
X11602691Y-16536236D02*
X11593167Y-16517188D01*
X11593167Y-16517188D02*
X11583643Y-16479093D01*
X11583643Y-16479093D02*
X11583643Y-16431474D01*
X11583643Y-16431474D02*
X11593167Y-16393379D01*
X11593167Y-16393379D02*
X11602691Y-16374331D01*
X11602691Y-16374331D02*
X11612215Y-16364808D01*
X11612215Y-16364808D02*
X11631262Y-16355284D01*
X11821739Y-16355284D02*
X11840786Y-16355284D01*
X11840786Y-16355284D02*
X11859834Y-16364808D01*
X11859834Y-16364808D02*
X11869358Y-16374331D01*
X11869358Y-16374331D02*
X11878882Y-16393379D01*
X11878882Y-16393379D02*
X11888405Y-16431474D01*
X11888405Y-16431474D02*
X11888405Y-16479093D01*
X11888405Y-16479093D02*
X11878882Y-16517188D01*
X11878882Y-16517188D02*
X11869358Y-16536236D01*
X11869358Y-16536236D02*
X11859834Y-16545760D01*
X11859834Y-16545760D02*
X11840786Y-16555284D01*
X11840786Y-16555284D02*
X11821739Y-16555284D01*
X11821739Y-16555284D02*
X11802691Y-16545760D01*
X11802691Y-16545760D02*
X11793167Y-16536236D01*
X11793167Y-16536236D02*
X11783643Y-16517188D01*
X11783643Y-16517188D02*
X11774120Y-16479093D01*
X11774120Y-16479093D02*
X11774120Y-16431474D01*
X11774120Y-16431474D02*
X11783643Y-16393379D01*
X11783643Y-16393379D02*
X11793167Y-16374331D01*
X11793167Y-16374331D02*
X11802691Y-16364808D01*
X11802691Y-16364808D02*
X11821739Y-16355284D01*
X11974120Y-16555284D02*
X11974120Y-16421950D01*
X11974120Y-16440998D02*
X11983643Y-16431474D01*
X11983643Y-16431474D02*
X12002691Y-16421950D01*
X12002691Y-16421950D02*
X12031263Y-16421950D01*
X12031263Y-16421950D02*
X12050310Y-16431474D01*
X12050310Y-16431474D02*
X12059834Y-16450522D01*
X12059834Y-16450522D02*
X12059834Y-16555284D01*
X12059834Y-16450522D02*
X12069358Y-16431474D01*
X12069358Y-16431474D02*
X12088405Y-16421950D01*
X12088405Y-16421950D02*
X12116977Y-16421950D01*
X12116977Y-16421950D02*
X12136024Y-16431474D01*
X12136024Y-16431474D02*
X12145548Y-16450522D01*
X12145548Y-16450522D02*
X12145548Y-16555284D01*
X12240786Y-16555284D02*
X12240786Y-16421950D01*
X12240786Y-16440998D02*
X12250310Y-16431474D01*
X12250310Y-16431474D02*
X12269358Y-16421950D01*
X12269358Y-16421950D02*
X12297929Y-16421950D01*
X12297929Y-16421950D02*
X12316977Y-16431474D01*
X12316977Y-16431474D02*
X12326501Y-16450522D01*
X12326501Y-16450522D02*
X12326501Y-16555284D01*
X12326501Y-16450522D02*
X12336024Y-16431474D01*
X12336024Y-16431474D02*
X12355072Y-16421950D01*
X12355072Y-16421950D02*
X12383643Y-16421950D01*
X12383643Y-16421950D02*
X12402691Y-16431474D01*
X12402691Y-16431474D02*
X12412215Y-16450522D01*
X12412215Y-16450522D02*
X12412215Y-16555284D01*
X12802691Y-16345760D02*
X12631263Y-16602903D01*
X13059834Y-16355284D02*
X13078882Y-16355284D01*
X13078882Y-16355284D02*
X13097929Y-16364808D01*
X13097929Y-16364808D02*
X13107453Y-16374331D01*
X13107453Y-16374331D02*
X13116977Y-16393379D01*
X13116977Y-16393379D02*
X13126501Y-16431474D01*
X13126501Y-16431474D02*
X13126501Y-16479093D01*
X13126501Y-16479093D02*
X13116977Y-16517188D01*
X13116977Y-16517188D02*
X13107453Y-16536236D01*
X13107453Y-16536236D02*
X13097929Y-16545760D01*
X13097929Y-16545760D02*
X13078882Y-16555284D01*
X13078882Y-16555284D02*
X13059834Y-16555284D01*
X13059834Y-16555284D02*
X13040786Y-16545760D01*
X13040786Y-16545760D02*
X13031263Y-16536236D01*
X13031263Y-16536236D02*
X13021739Y-16517188D01*
X13021739Y-16517188D02*
X13012215Y-16479093D01*
X13012215Y-16479093D02*
X13012215Y-16431474D01*
X13012215Y-16431474D02*
X13021739Y-16393379D01*
X13021739Y-16393379D02*
X13031263Y-16374331D01*
X13031263Y-16374331D02*
X13040786Y-16364808D01*
X13040786Y-16364808D02*
X13059834Y-16355284D01*
X13212215Y-16536236D02*
X13221739Y-16545760D01*
X13221739Y-16545760D02*
X13212215Y-16555284D01*
X13212215Y-16555284D02*
X13202691Y-16545760D01*
X13202691Y-16545760D02*
X13212215Y-16536236D01*
X13212215Y-16536236D02*
X13212215Y-16555284D01*
X13345548Y-16355284D02*
X13364596Y-16355284D01*
X13364596Y-16355284D02*
X13383644Y-16364808D01*
X13383644Y-16364808D02*
X13393167Y-16374331D01*
X13393167Y-16374331D02*
X13402691Y-16393379D01*
X13402691Y-16393379D02*
X13412215Y-16431474D01*
X13412215Y-16431474D02*
X13412215Y-16479093D01*
X13412215Y-16479093D02*
X13402691Y-16517188D01*
X13402691Y-16517188D02*
X13393167Y-16536236D01*
X13393167Y-16536236D02*
X13383644Y-16545760D01*
X13383644Y-16545760D02*
X13364596Y-16555284D01*
X13364596Y-16555284D02*
X13345548Y-16555284D01*
X13345548Y-16555284D02*
X13326501Y-16545760D01*
X13326501Y-16545760D02*
X13316977Y-16536236D01*
X13316977Y-16536236D02*
X13307453Y-16517188D01*
X13307453Y-16517188D02*
X13297929Y-16479093D01*
X13297929Y-16479093D02*
X13297929Y-16431474D01*
X13297929Y-16431474D02*
X13307453Y-16393379D01*
X13307453Y-16393379D02*
X13316977Y-16374331D01*
X13316977Y-16374331D02*
X13326501Y-16364808D01*
X13326501Y-16364808D02*
X13345548Y-16355284D01*
X13478882Y-16355284D02*
X13602691Y-16355284D01*
X13602691Y-16355284D02*
X13536025Y-16431474D01*
X13536025Y-16431474D02*
X13564596Y-16431474D01*
X13564596Y-16431474D02*
X13583644Y-16440998D01*
X13583644Y-16440998D02*
X13593167Y-16450522D01*
X13593167Y-16450522D02*
X13602691Y-16469569D01*
X13602691Y-16469569D02*
X13602691Y-16517188D01*
X13602691Y-16517188D02*
X13593167Y-16536236D01*
X13593167Y-16536236D02*
X13583644Y-16545760D01*
X13583644Y-16545760D02*
X13564596Y-16555284D01*
X13564596Y-16555284D02*
X13507453Y-16555284D01*
X13507453Y-16555284D02*
X13488406Y-16545760D01*
X13488406Y-16545760D02*
X13478882Y-16536236D01*
X13793167Y-16555284D02*
X13678882Y-16555284D01*
X13736025Y-16555284D02*
X13736025Y-16355284D01*
X13736025Y-16355284D02*
X13716977Y-16383855D01*
X13716977Y-16383855D02*
X13697929Y-16402903D01*
X13697929Y-16402903D02*
X13678882Y-16412427D01*
X13974120Y-16355284D02*
X13878882Y-16355284D01*
X13878882Y-16355284D02*
X13869358Y-16450522D01*
X13869358Y-16450522D02*
X13878882Y-16440998D01*
X13878882Y-16440998D02*
X13897929Y-16431474D01*
X13897929Y-16431474D02*
X13945548Y-16431474D01*
X13945548Y-16431474D02*
X13964596Y-16440998D01*
X13964596Y-16440998D02*
X13974120Y-16450522D01*
X13974120Y-16450522D02*
X13983644Y-16469569D01*
X13983644Y-16469569D02*
X13983644Y-16517188D01*
X13983644Y-16517188D02*
X13974120Y-16536236D01*
X13974120Y-16536236D02*
X13964596Y-16545760D01*
X13964596Y-16545760D02*
X13945548Y-16555284D01*
X13945548Y-16555284D02*
X13897929Y-16555284D01*
X13897929Y-16555284D02*
X13878882Y-16545760D01*
X13878882Y-16545760D02*
X13869358Y-16536236D01*
X14059834Y-16355284D02*
X14059834Y-16393379D01*
X14136025Y-16355284D02*
X14136025Y-16393379D01*
X14431263Y-16631474D02*
X14421739Y-16621950D01*
X14421739Y-16621950D02*
X14402691Y-16593379D01*
X14402691Y-16593379D02*
X14393168Y-16574331D01*
X14393168Y-16574331D02*
X14383644Y-16545760D01*
X14383644Y-16545760D02*
X14374120Y-16498141D01*
X14374120Y-16498141D02*
X14374120Y-16460046D01*
X14374120Y-16460046D02*
X14383644Y-16412427D01*
X14383644Y-16412427D02*
X14393168Y-16383855D01*
X14393168Y-16383855D02*
X14402691Y-16364808D01*
X14402691Y-16364808D02*
X14421739Y-16336236D01*
X14421739Y-16336236D02*
X14431263Y-16326712D01*
X14602691Y-16355284D02*
X14507453Y-16355284D01*
X14507453Y-16355284D02*
X14497929Y-16450522D01*
X14497929Y-16450522D02*
X14507453Y-16440998D01*
X14507453Y-16440998D02*
X14526501Y-16431474D01*
X14526501Y-16431474D02*
X14574120Y-16431474D01*
X14574120Y-16431474D02*
X14593168Y-16440998D01*
X14593168Y-16440998D02*
X14602691Y-16450522D01*
X14602691Y-16450522D02*
X14612215Y-16469569D01*
X14612215Y-16469569D02*
X14612215Y-16517188D01*
X14612215Y-16517188D02*
X14602691Y-16536236D01*
X14602691Y-16536236D02*
X14593168Y-16545760D01*
X14593168Y-16545760D02*
X14574120Y-16555284D01*
X14574120Y-16555284D02*
X14526501Y-16555284D01*
X14526501Y-16555284D02*
X14507453Y-16545760D01*
X14507453Y-16545760D02*
X14497929Y-16536236D01*
X14726501Y-16440998D02*
X14707453Y-16431474D01*
X14707453Y-16431474D02*
X14697929Y-16421950D01*
X14697929Y-16421950D02*
X14688406Y-16402903D01*
X14688406Y-16402903D02*
X14688406Y-16393379D01*
X14688406Y-16393379D02*
X14697929Y-16374331D01*
X14697929Y-16374331D02*
X14707453Y-16364808D01*
X14707453Y-16364808D02*
X14726501Y-16355284D01*
X14726501Y-16355284D02*
X14764596Y-16355284D01*
X14764596Y-16355284D02*
X14783644Y-16364808D01*
X14783644Y-16364808D02*
X14793168Y-16374331D01*
X14793168Y-16374331D02*
X14802691Y-16393379D01*
X14802691Y-16393379D02*
X14802691Y-16402903D01*
X14802691Y-16402903D02*
X14793168Y-16421950D01*
X14793168Y-16421950D02*
X14783644Y-16431474D01*
X14783644Y-16431474D02*
X14764596Y-16440998D01*
X14764596Y-16440998D02*
X14726501Y-16440998D01*
X14726501Y-16440998D02*
X14707453Y-16450522D01*
X14707453Y-16450522D02*
X14697929Y-16460046D01*
X14697929Y-16460046D02*
X14688406Y-16479093D01*
X14688406Y-16479093D02*
X14688406Y-16517188D01*
X14688406Y-16517188D02*
X14697929Y-16536236D01*
X14697929Y-16536236D02*
X14707453Y-16545760D01*
X14707453Y-16545760D02*
X14726501Y-16555284D01*
X14726501Y-16555284D02*
X14764596Y-16555284D01*
X14764596Y-16555284D02*
X14783644Y-16545760D01*
X14783644Y-16545760D02*
X14793168Y-16536236D01*
X14793168Y-16536236D02*
X14802691Y-16517188D01*
X14802691Y-16517188D02*
X14802691Y-16479093D01*
X14802691Y-16479093D02*
X14793168Y-16460046D01*
X14793168Y-16460046D02*
X14783644Y-16450522D01*
X14783644Y-16450522D02*
X14764596Y-16440998D01*
X15040787Y-16555284D02*
X15040787Y-16355284D01*
X15126501Y-16555284D02*
X15126501Y-16450522D01*
X15126501Y-16450522D02*
X15116977Y-16431474D01*
X15116977Y-16431474D02*
X15097930Y-16421950D01*
X15097930Y-16421950D02*
X15069358Y-16421950D01*
X15069358Y-16421950D02*
X15050310Y-16431474D01*
X15050310Y-16431474D02*
X15040787Y-16440998D01*
X15250310Y-16555284D02*
X15231263Y-16545760D01*
X15231263Y-16545760D02*
X15221739Y-16536236D01*
X15221739Y-16536236D02*
X15212215Y-16517188D01*
X15212215Y-16517188D02*
X15212215Y-16460046D01*
X15212215Y-16460046D02*
X15221739Y-16440998D01*
X15221739Y-16440998D02*
X15231263Y-16431474D01*
X15231263Y-16431474D02*
X15250310Y-16421950D01*
X15250310Y-16421950D02*
X15278882Y-16421950D01*
X15278882Y-16421950D02*
X15297930Y-16431474D01*
X15297930Y-16431474D02*
X15307453Y-16440998D01*
X15307453Y-16440998D02*
X15316977Y-16460046D01*
X15316977Y-16460046D02*
X15316977Y-16517188D01*
X15316977Y-16517188D02*
X15307453Y-16536236D01*
X15307453Y-16536236D02*
X15297930Y-16545760D01*
X15297930Y-16545760D02*
X15278882Y-16555284D01*
X15278882Y-16555284D02*
X15250310Y-16555284D01*
X15431263Y-16555284D02*
X15412215Y-16545760D01*
X15412215Y-16545760D02*
X15402691Y-16526712D01*
X15402691Y-16526712D02*
X15402691Y-16355284D01*
X15583644Y-16545760D02*
X15564596Y-16555284D01*
X15564596Y-16555284D02*
X15526501Y-16555284D01*
X15526501Y-16555284D02*
X15507453Y-16545760D01*
X15507453Y-16545760D02*
X15497930Y-16526712D01*
X15497930Y-16526712D02*
X15497930Y-16450522D01*
X15497930Y-16450522D02*
X15507453Y-16431474D01*
X15507453Y-16431474D02*
X15526501Y-16421950D01*
X15526501Y-16421950D02*
X15564596Y-16421950D01*
X15564596Y-16421950D02*
X15583644Y-16431474D01*
X15583644Y-16431474D02*
X15593168Y-16450522D01*
X15593168Y-16450522D02*
X15593168Y-16469569D01*
X15593168Y-16469569D02*
X15497930Y-16488617D01*
X15669358Y-16545760D02*
X15688406Y-16555284D01*
X15688406Y-16555284D02*
X15726501Y-16555284D01*
X15726501Y-16555284D02*
X15745549Y-16545760D01*
X15745549Y-16545760D02*
X15755072Y-16526712D01*
X15755072Y-16526712D02*
X15755072Y-16517188D01*
X15755072Y-16517188D02*
X15745549Y-16498141D01*
X15745549Y-16498141D02*
X15726501Y-16488617D01*
X15726501Y-16488617D02*
X15697930Y-16488617D01*
X15697930Y-16488617D02*
X15678882Y-16479093D01*
X15678882Y-16479093D02*
X15669358Y-16460046D01*
X15669358Y-16460046D02*
X15669358Y-16450522D01*
X15669358Y-16450522D02*
X15678882Y-16431474D01*
X15678882Y-16431474D02*
X15697930Y-16421950D01*
X15697930Y-16421950D02*
X15726501Y-16421950D01*
X15726501Y-16421950D02*
X15745549Y-16431474D01*
X15821739Y-16631474D02*
X15831263Y-16621950D01*
X15831263Y-16621950D02*
X15850311Y-16593379D01*
X15850311Y-16593379D02*
X15859834Y-16574331D01*
X15859834Y-16574331D02*
X15869358Y-16545760D01*
X15869358Y-16545760D02*
X15878882Y-16498141D01*
X15878882Y-16498141D02*
X15878882Y-16460046D01*
X15878882Y-16460046D02*
X15869358Y-16412427D01*
X15869358Y-16412427D02*
X15859834Y-16383855D01*
X15859834Y-16383855D02*
X15850311Y-16364808D01*
X15850311Y-16364808D02*
X15831263Y-16336236D01*
X15831263Y-16336236D02*
X15821739Y-16326712D01*
D13*
X10811200Y-16682800D02*
X10811200Y-16772800D01*
X10766200Y-16727800D02*
X10856200Y-16727800D01*
D12*
X11155072Y-16619284D02*
X11174120Y-16619284D01*
X11174120Y-16619284D02*
X11193167Y-16628808D01*
X11193167Y-16628808D02*
X11202691Y-16638331D01*
X11202691Y-16638331D02*
X11212215Y-16657379D01*
X11212215Y-16657379D02*
X11221739Y-16695474D01*
X11221739Y-16695474D02*
X11221739Y-16743093D01*
X11221739Y-16743093D02*
X11212215Y-16781189D01*
X11212215Y-16781189D02*
X11202691Y-16800236D01*
X11202691Y-16800236D02*
X11193167Y-16809760D01*
X11193167Y-16809760D02*
X11174120Y-16819284D01*
X11174120Y-16819284D02*
X11155072Y-16819284D01*
X11155072Y-16819284D02*
X11136024Y-16809760D01*
X11136024Y-16809760D02*
X11126501Y-16800236D01*
X11126501Y-16800236D02*
X11116977Y-16781189D01*
X11116977Y-16781189D02*
X11107453Y-16743093D01*
X11107453Y-16743093D02*
X11107453Y-16695474D01*
X11107453Y-16695474D02*
X11116977Y-16657379D01*
X11116977Y-16657379D02*
X11126501Y-16638331D01*
X11126501Y-16638331D02*
X11136024Y-16628808D01*
X11136024Y-16628808D02*
X11155072Y-16619284D01*
X11307453Y-16800236D02*
X11316977Y-16809760D01*
X11316977Y-16809760D02*
X11307453Y-16819284D01*
X11307453Y-16819284D02*
X11297929Y-16809760D01*
X11297929Y-16809760D02*
X11307453Y-16800236D01*
X11307453Y-16800236D02*
X11307453Y-16819284D01*
X11412215Y-16819284D02*
X11450310Y-16819284D01*
X11450310Y-16819284D02*
X11469358Y-16809760D01*
X11469358Y-16809760D02*
X11478882Y-16800236D01*
X11478882Y-16800236D02*
X11497929Y-16771665D01*
X11497929Y-16771665D02*
X11507453Y-16733569D01*
X11507453Y-16733569D02*
X11507453Y-16657379D01*
X11507453Y-16657379D02*
X11497929Y-16638331D01*
X11497929Y-16638331D02*
X11488405Y-16628808D01*
X11488405Y-16628808D02*
X11469358Y-16619284D01*
X11469358Y-16619284D02*
X11431262Y-16619284D01*
X11431262Y-16619284D02*
X11412215Y-16628808D01*
X11412215Y-16628808D02*
X11402691Y-16638331D01*
X11402691Y-16638331D02*
X11393167Y-16657379D01*
X11393167Y-16657379D02*
X11393167Y-16704998D01*
X11393167Y-16704998D02*
X11402691Y-16724046D01*
X11402691Y-16724046D02*
X11412215Y-16733569D01*
X11412215Y-16733569D02*
X11431262Y-16743093D01*
X11431262Y-16743093D02*
X11469358Y-16743093D01*
X11469358Y-16743093D02*
X11488405Y-16733569D01*
X11488405Y-16733569D02*
X11497929Y-16724046D01*
X11497929Y-16724046D02*
X11507453Y-16704998D01*
X11631262Y-16619284D02*
X11650310Y-16619284D01*
X11650310Y-16619284D02*
X11669358Y-16628808D01*
X11669358Y-16628808D02*
X11678882Y-16638331D01*
X11678882Y-16638331D02*
X11688405Y-16657379D01*
X11688405Y-16657379D02*
X11697929Y-16695474D01*
X11697929Y-16695474D02*
X11697929Y-16743093D01*
X11697929Y-16743093D02*
X11688405Y-16781189D01*
X11688405Y-16781189D02*
X11678882Y-16800236D01*
X11678882Y-16800236D02*
X11669358Y-16809760D01*
X11669358Y-16809760D02*
X11650310Y-16819284D01*
X11650310Y-16819284D02*
X11631262Y-16819284D01*
X11631262Y-16819284D02*
X11612215Y-16809760D01*
X11612215Y-16809760D02*
X11602691Y-16800236D01*
X11602691Y-16800236D02*
X11593167Y-16781189D01*
X11593167Y-16781189D02*
X11583643Y-16743093D01*
X11583643Y-16743093D02*
X11583643Y-16695474D01*
X11583643Y-16695474D02*
X11593167Y-16657379D01*
X11593167Y-16657379D02*
X11602691Y-16638331D01*
X11602691Y-16638331D02*
X11612215Y-16628808D01*
X11612215Y-16628808D02*
X11631262Y-16619284D01*
X11821739Y-16619284D02*
X11840786Y-16619284D01*
X11840786Y-16619284D02*
X11859834Y-16628808D01*
X11859834Y-16628808D02*
X11869358Y-16638331D01*
X11869358Y-16638331D02*
X11878882Y-16657379D01*
X11878882Y-16657379D02*
X11888405Y-16695474D01*
X11888405Y-16695474D02*
X11888405Y-16743093D01*
X11888405Y-16743093D02*
X11878882Y-16781189D01*
X11878882Y-16781189D02*
X11869358Y-16800236D01*
X11869358Y-16800236D02*
X11859834Y-16809760D01*
X11859834Y-16809760D02*
X11840786Y-16819284D01*
X11840786Y-16819284D02*
X11821739Y-16819284D01*
X11821739Y-16819284D02*
X11802691Y-16809760D01*
X11802691Y-16809760D02*
X11793167Y-16800236D01*
X11793167Y-16800236D02*
X11783643Y-16781189D01*
X11783643Y-16781189D02*
X11774120Y-16743093D01*
X11774120Y-16743093D02*
X11774120Y-16695474D01*
X11774120Y-16695474D02*
X11783643Y-16657379D01*
X11783643Y-16657379D02*
X11793167Y-16638331D01*
X11793167Y-16638331D02*
X11802691Y-16628808D01*
X11802691Y-16628808D02*
X11821739Y-16619284D01*
X11974120Y-16819284D02*
X11974120Y-16685950D01*
X11974120Y-16704998D02*
X11983643Y-16695474D01*
X11983643Y-16695474D02*
X12002691Y-16685950D01*
X12002691Y-16685950D02*
X12031263Y-16685950D01*
X12031263Y-16685950D02*
X12050310Y-16695474D01*
X12050310Y-16695474D02*
X12059834Y-16714522D01*
X12059834Y-16714522D02*
X12059834Y-16819284D01*
X12059834Y-16714522D02*
X12069358Y-16695474D01*
X12069358Y-16695474D02*
X12088405Y-16685950D01*
X12088405Y-16685950D02*
X12116977Y-16685950D01*
X12116977Y-16685950D02*
X12136024Y-16695474D01*
X12136024Y-16695474D02*
X12145548Y-16714522D01*
X12145548Y-16714522D02*
X12145548Y-16819284D01*
X12240786Y-16819284D02*
X12240786Y-16685950D01*
X12240786Y-16704998D02*
X12250310Y-16695474D01*
X12250310Y-16695474D02*
X12269358Y-16685950D01*
X12269358Y-16685950D02*
X12297929Y-16685950D01*
X12297929Y-16685950D02*
X12316977Y-16695474D01*
X12316977Y-16695474D02*
X12326501Y-16714522D01*
X12326501Y-16714522D02*
X12326501Y-16819284D01*
X12326501Y-16714522D02*
X12336024Y-16695474D01*
X12336024Y-16695474D02*
X12355072Y-16685950D01*
X12355072Y-16685950D02*
X12383643Y-16685950D01*
X12383643Y-16685950D02*
X12402691Y-16695474D01*
X12402691Y-16695474D02*
X12412215Y-16714522D01*
X12412215Y-16714522D02*
X12412215Y-16819284D01*
X12802691Y-16609760D02*
X12631263Y-16866903D01*
X13059834Y-16619284D02*
X13078882Y-16619284D01*
X13078882Y-16619284D02*
X13097929Y-16628808D01*
X13097929Y-16628808D02*
X13107453Y-16638331D01*
X13107453Y-16638331D02*
X13116977Y-16657379D01*
X13116977Y-16657379D02*
X13126501Y-16695474D01*
X13126501Y-16695474D02*
X13126501Y-16743093D01*
X13126501Y-16743093D02*
X13116977Y-16781189D01*
X13116977Y-16781189D02*
X13107453Y-16800236D01*
X13107453Y-16800236D02*
X13097929Y-16809760D01*
X13097929Y-16809760D02*
X13078882Y-16819284D01*
X13078882Y-16819284D02*
X13059834Y-16819284D01*
X13059834Y-16819284D02*
X13040786Y-16809760D01*
X13040786Y-16809760D02*
X13031263Y-16800236D01*
X13031263Y-16800236D02*
X13021739Y-16781189D01*
X13021739Y-16781189D02*
X13012215Y-16743093D01*
X13012215Y-16743093D02*
X13012215Y-16695474D01*
X13012215Y-16695474D02*
X13021739Y-16657379D01*
X13021739Y-16657379D02*
X13031263Y-16638331D01*
X13031263Y-16638331D02*
X13040786Y-16628808D01*
X13040786Y-16628808D02*
X13059834Y-16619284D01*
X13212215Y-16800236D02*
X13221739Y-16809760D01*
X13221739Y-16809760D02*
X13212215Y-16819284D01*
X13212215Y-16819284D02*
X13202691Y-16809760D01*
X13202691Y-16809760D02*
X13212215Y-16800236D01*
X13212215Y-16800236D02*
X13212215Y-16819284D01*
X13345548Y-16619284D02*
X13364596Y-16619284D01*
X13364596Y-16619284D02*
X13383644Y-16628808D01*
X13383644Y-16628808D02*
X13393167Y-16638331D01*
X13393167Y-16638331D02*
X13402691Y-16657379D01*
X13402691Y-16657379D02*
X13412215Y-16695474D01*
X13412215Y-16695474D02*
X13412215Y-16743093D01*
X13412215Y-16743093D02*
X13402691Y-16781189D01*
X13402691Y-16781189D02*
X13393167Y-16800236D01*
X13393167Y-16800236D02*
X13383644Y-16809760D01*
X13383644Y-16809760D02*
X13364596Y-16819284D01*
X13364596Y-16819284D02*
X13345548Y-16819284D01*
X13345548Y-16819284D02*
X13326501Y-16809760D01*
X13326501Y-16809760D02*
X13316977Y-16800236D01*
X13316977Y-16800236D02*
X13307453Y-16781189D01*
X13307453Y-16781189D02*
X13297929Y-16743093D01*
X13297929Y-16743093D02*
X13297929Y-16695474D01*
X13297929Y-16695474D02*
X13307453Y-16657379D01*
X13307453Y-16657379D02*
X13316977Y-16638331D01*
X13316977Y-16638331D02*
X13326501Y-16628808D01*
X13326501Y-16628808D02*
X13345548Y-16619284D01*
X13478882Y-16619284D02*
X13602691Y-16619284D01*
X13602691Y-16619284D02*
X13536025Y-16695474D01*
X13536025Y-16695474D02*
X13564596Y-16695474D01*
X13564596Y-16695474D02*
X13583644Y-16704998D01*
X13583644Y-16704998D02*
X13593167Y-16714522D01*
X13593167Y-16714522D02*
X13602691Y-16733569D01*
X13602691Y-16733569D02*
X13602691Y-16781189D01*
X13602691Y-16781189D02*
X13593167Y-16800236D01*
X13593167Y-16800236D02*
X13583644Y-16809760D01*
X13583644Y-16809760D02*
X13564596Y-16819284D01*
X13564596Y-16819284D02*
X13507453Y-16819284D01*
X13507453Y-16819284D02*
X13488406Y-16809760D01*
X13488406Y-16809760D02*
X13478882Y-16800236D01*
X13783644Y-16619284D02*
X13688406Y-16619284D01*
X13688406Y-16619284D02*
X13678882Y-16714522D01*
X13678882Y-16714522D02*
X13688406Y-16704998D01*
X13688406Y-16704998D02*
X13707453Y-16695474D01*
X13707453Y-16695474D02*
X13755072Y-16695474D01*
X13755072Y-16695474D02*
X13774120Y-16704998D01*
X13774120Y-16704998D02*
X13783644Y-16714522D01*
X13783644Y-16714522D02*
X13793167Y-16733569D01*
X13793167Y-16733569D02*
X13793167Y-16781189D01*
X13793167Y-16781189D02*
X13783644Y-16800236D01*
X13783644Y-16800236D02*
X13774120Y-16809760D01*
X13774120Y-16809760D02*
X13755072Y-16819284D01*
X13755072Y-16819284D02*
X13707453Y-16819284D01*
X13707453Y-16819284D02*
X13688406Y-16809760D01*
X13688406Y-16809760D02*
X13678882Y-16800236D01*
X13964596Y-16685950D02*
X13964596Y-16819284D01*
X13916977Y-16609760D02*
X13869358Y-16752617D01*
X13869358Y-16752617D02*
X13993167Y-16752617D01*
X14059834Y-16619284D02*
X14059834Y-16657379D01*
X14136025Y-16619284D02*
X14136025Y-16657379D01*
X14431263Y-16895474D02*
X14421739Y-16885950D01*
X14421739Y-16885950D02*
X14402691Y-16857379D01*
X14402691Y-16857379D02*
X14393168Y-16838331D01*
X14393168Y-16838331D02*
X14383644Y-16809760D01*
X14383644Y-16809760D02*
X14374120Y-16762141D01*
X14374120Y-16762141D02*
X14374120Y-16724046D01*
X14374120Y-16724046D02*
X14383644Y-16676427D01*
X14383644Y-16676427D02*
X14393168Y-16647855D01*
X14393168Y-16647855D02*
X14402691Y-16628808D01*
X14402691Y-16628808D02*
X14421739Y-16600236D01*
X14421739Y-16600236D02*
X14431263Y-16590712D01*
X14536025Y-16704998D02*
X14516977Y-16695474D01*
X14516977Y-16695474D02*
X14507453Y-16685950D01*
X14507453Y-16685950D02*
X14497929Y-16666903D01*
X14497929Y-16666903D02*
X14497929Y-16657379D01*
X14497929Y-16657379D02*
X14507453Y-16638331D01*
X14507453Y-16638331D02*
X14516977Y-16628808D01*
X14516977Y-16628808D02*
X14536025Y-16619284D01*
X14536025Y-16619284D02*
X14574120Y-16619284D01*
X14574120Y-16619284D02*
X14593168Y-16628808D01*
X14593168Y-16628808D02*
X14602691Y-16638331D01*
X14602691Y-16638331D02*
X14612215Y-16657379D01*
X14612215Y-16657379D02*
X14612215Y-16666903D01*
X14612215Y-16666903D02*
X14602691Y-16685950D01*
X14602691Y-16685950D02*
X14593168Y-16695474D01*
X14593168Y-16695474D02*
X14574120Y-16704998D01*
X14574120Y-16704998D02*
X14536025Y-16704998D01*
X14536025Y-16704998D02*
X14516977Y-16714522D01*
X14516977Y-16714522D02*
X14507453Y-16724046D01*
X14507453Y-16724046D02*
X14497929Y-16743093D01*
X14497929Y-16743093D02*
X14497929Y-16781189D01*
X14497929Y-16781189D02*
X14507453Y-16800236D01*
X14507453Y-16800236D02*
X14516977Y-16809760D01*
X14516977Y-16809760D02*
X14536025Y-16819284D01*
X14536025Y-16819284D02*
X14574120Y-16819284D01*
X14574120Y-16819284D02*
X14593168Y-16809760D01*
X14593168Y-16809760D02*
X14602691Y-16800236D01*
X14602691Y-16800236D02*
X14612215Y-16781189D01*
X14612215Y-16781189D02*
X14612215Y-16743093D01*
X14612215Y-16743093D02*
X14602691Y-16724046D01*
X14602691Y-16724046D02*
X14593168Y-16714522D01*
X14593168Y-16714522D02*
X14574120Y-16704998D01*
X14850310Y-16819284D02*
X14850310Y-16619284D01*
X14936025Y-16819284D02*
X14936025Y-16714522D01*
X14936025Y-16714522D02*
X14926501Y-16695474D01*
X14926501Y-16695474D02*
X14907453Y-16685950D01*
X14907453Y-16685950D02*
X14878882Y-16685950D01*
X14878882Y-16685950D02*
X14859834Y-16695474D01*
X14859834Y-16695474D02*
X14850310Y-16704998D01*
X15059834Y-16819284D02*
X15040787Y-16809760D01*
X15040787Y-16809760D02*
X15031263Y-16800236D01*
X15031263Y-16800236D02*
X15021739Y-16781189D01*
X15021739Y-16781189D02*
X15021739Y-16724046D01*
X15021739Y-16724046D02*
X15031263Y-16704998D01*
X15031263Y-16704998D02*
X15040787Y-16695474D01*
X15040787Y-16695474D02*
X15059834Y-16685950D01*
X15059834Y-16685950D02*
X15088406Y-16685950D01*
X15088406Y-16685950D02*
X15107453Y-16695474D01*
X15107453Y-16695474D02*
X15116977Y-16704998D01*
X15116977Y-16704998D02*
X15126501Y-16724046D01*
X15126501Y-16724046D02*
X15126501Y-16781189D01*
X15126501Y-16781189D02*
X15116977Y-16800236D01*
X15116977Y-16800236D02*
X15107453Y-16809760D01*
X15107453Y-16809760D02*
X15088406Y-16819284D01*
X15088406Y-16819284D02*
X15059834Y-16819284D01*
X15240787Y-16819284D02*
X15221739Y-16809760D01*
X15221739Y-16809760D02*
X15212215Y-16790712D01*
X15212215Y-16790712D02*
X15212215Y-16619284D01*
X15393168Y-16809760D02*
X15374120Y-16819284D01*
X15374120Y-16819284D02*
X15336025Y-16819284D01*
X15336025Y-16819284D02*
X15316977Y-16809760D01*
X15316977Y-16809760D02*
X15307453Y-16790712D01*
X15307453Y-16790712D02*
X15307453Y-16714522D01*
X15307453Y-16714522D02*
X15316977Y-16695474D01*
X15316977Y-16695474D02*
X15336025Y-16685950D01*
X15336025Y-16685950D02*
X15374120Y-16685950D01*
X15374120Y-16685950D02*
X15393168Y-16695474D01*
X15393168Y-16695474D02*
X15402691Y-16714522D01*
X15402691Y-16714522D02*
X15402691Y-16733569D01*
X15402691Y-16733569D02*
X15307453Y-16752617D01*
X15478882Y-16809760D02*
X15497930Y-16819284D01*
X15497930Y-16819284D02*
X15536025Y-16819284D01*
X15536025Y-16819284D02*
X15555072Y-16809760D01*
X15555072Y-16809760D02*
X15564596Y-16790712D01*
X15564596Y-16790712D02*
X15564596Y-16781189D01*
X15564596Y-16781189D02*
X15555072Y-16762141D01*
X15555072Y-16762141D02*
X15536025Y-16752617D01*
X15536025Y-16752617D02*
X15507453Y-16752617D01*
X15507453Y-16752617D02*
X15488406Y-16743093D01*
X15488406Y-16743093D02*
X15478882Y-16724046D01*
X15478882Y-16724046D02*
X15478882Y-16714522D01*
X15478882Y-16714522D02*
X15488406Y-16695474D01*
X15488406Y-16695474D02*
X15507453Y-16685950D01*
X15507453Y-16685950D02*
X15536025Y-16685950D01*
X15536025Y-16685950D02*
X15555072Y-16695474D01*
X15631263Y-16895474D02*
X15640787Y-16885950D01*
X15640787Y-16885950D02*
X15659834Y-16857379D01*
X15659834Y-16857379D02*
X15669358Y-16838331D01*
X15669358Y-16838331D02*
X15678882Y-16809760D01*
X15678882Y-16809760D02*
X15688406Y-16762141D01*
X15688406Y-16762141D02*
X15688406Y-16724046D01*
X15688406Y-16724046D02*
X15678882Y-16676427D01*
X15678882Y-16676427D02*
X15669358Y-16647855D01*
X15669358Y-16647855D02*
X15659834Y-16628808D01*
X15659834Y-16628808D02*
X15640787Y-16600236D01*
X15640787Y-16600236D02*
X15631263Y-16590712D01*
D13*
X10842288Y-17025388D02*
X10842288Y-16958212D01*
X10775112Y-16958212D01*
X10775112Y-17025388D01*
X10842288Y-17025388D01*
D12*
X11155072Y-16883284D02*
X11174120Y-16883284D01*
X11174120Y-16883284D02*
X11193167Y-16892808D01*
X11193167Y-16892808D02*
X11202691Y-16902331D01*
X11202691Y-16902331D02*
X11212215Y-16921379D01*
X11212215Y-16921379D02*
X11221739Y-16959474D01*
X11221739Y-16959474D02*
X11221739Y-17007093D01*
X11221739Y-17007093D02*
X11212215Y-17045189D01*
X11212215Y-17045189D02*
X11202691Y-17064236D01*
X11202691Y-17064236D02*
X11193167Y-17073760D01*
X11193167Y-17073760D02*
X11174120Y-17083284D01*
X11174120Y-17083284D02*
X11155072Y-17083284D01*
X11155072Y-17083284D02*
X11136024Y-17073760D01*
X11136024Y-17073760D02*
X11126501Y-17064236D01*
X11126501Y-17064236D02*
X11116977Y-17045189D01*
X11116977Y-17045189D02*
X11107453Y-17007093D01*
X11107453Y-17007093D02*
X11107453Y-16959474D01*
X11107453Y-16959474D02*
X11116977Y-16921379D01*
X11116977Y-16921379D02*
X11126501Y-16902331D01*
X11126501Y-16902331D02*
X11136024Y-16892808D01*
X11136024Y-16892808D02*
X11155072Y-16883284D01*
X11307453Y-17064236D02*
X11316977Y-17073760D01*
X11316977Y-17073760D02*
X11307453Y-17083284D01*
X11307453Y-17083284D02*
X11297929Y-17073760D01*
X11297929Y-17073760D02*
X11307453Y-17064236D01*
X11307453Y-17064236D02*
X11307453Y-17083284D01*
X11412215Y-17083284D02*
X11450310Y-17083284D01*
X11450310Y-17083284D02*
X11469358Y-17073760D01*
X11469358Y-17073760D02*
X11478882Y-17064236D01*
X11478882Y-17064236D02*
X11497929Y-17035665D01*
X11497929Y-17035665D02*
X11507453Y-16997570D01*
X11507453Y-16997570D02*
X11507453Y-16921379D01*
X11507453Y-16921379D02*
X11497929Y-16902331D01*
X11497929Y-16902331D02*
X11488405Y-16892808D01*
X11488405Y-16892808D02*
X11469358Y-16883284D01*
X11469358Y-16883284D02*
X11431262Y-16883284D01*
X11431262Y-16883284D02*
X11412215Y-16892808D01*
X11412215Y-16892808D02*
X11402691Y-16902331D01*
X11402691Y-16902331D02*
X11393167Y-16921379D01*
X11393167Y-16921379D02*
X11393167Y-16968998D01*
X11393167Y-16968998D02*
X11402691Y-16988046D01*
X11402691Y-16988046D02*
X11412215Y-16997570D01*
X11412215Y-16997570D02*
X11431262Y-17007093D01*
X11431262Y-17007093D02*
X11469358Y-17007093D01*
X11469358Y-17007093D02*
X11488405Y-16997570D01*
X11488405Y-16997570D02*
X11497929Y-16988046D01*
X11497929Y-16988046D02*
X11507453Y-16968998D01*
X11688405Y-16883284D02*
X11593167Y-16883284D01*
X11593167Y-16883284D02*
X11583643Y-16978522D01*
X11583643Y-16978522D02*
X11593167Y-16968998D01*
X11593167Y-16968998D02*
X11612215Y-16959474D01*
X11612215Y-16959474D02*
X11659834Y-16959474D01*
X11659834Y-16959474D02*
X11678882Y-16968998D01*
X11678882Y-16968998D02*
X11688405Y-16978522D01*
X11688405Y-16978522D02*
X11697929Y-16997570D01*
X11697929Y-16997570D02*
X11697929Y-17045189D01*
X11697929Y-17045189D02*
X11688405Y-17064236D01*
X11688405Y-17064236D02*
X11678882Y-17073760D01*
X11678882Y-17073760D02*
X11659834Y-17083284D01*
X11659834Y-17083284D02*
X11612215Y-17083284D01*
X11612215Y-17083284D02*
X11593167Y-17073760D01*
X11593167Y-17073760D02*
X11583643Y-17064236D01*
X11821739Y-16883284D02*
X11840786Y-16883284D01*
X11840786Y-16883284D02*
X11859834Y-16892808D01*
X11859834Y-16892808D02*
X11869358Y-16902331D01*
X11869358Y-16902331D02*
X11878882Y-16921379D01*
X11878882Y-16921379D02*
X11888405Y-16959474D01*
X11888405Y-16959474D02*
X11888405Y-17007093D01*
X11888405Y-17007093D02*
X11878882Y-17045189D01*
X11878882Y-17045189D02*
X11869358Y-17064236D01*
X11869358Y-17064236D02*
X11859834Y-17073760D01*
X11859834Y-17073760D02*
X11840786Y-17083284D01*
X11840786Y-17083284D02*
X11821739Y-17083284D01*
X11821739Y-17083284D02*
X11802691Y-17073760D01*
X11802691Y-17073760D02*
X11793167Y-17064236D01*
X11793167Y-17064236D02*
X11783643Y-17045189D01*
X11783643Y-17045189D02*
X11774120Y-17007093D01*
X11774120Y-17007093D02*
X11774120Y-16959474D01*
X11774120Y-16959474D02*
X11783643Y-16921379D01*
X11783643Y-16921379D02*
X11793167Y-16902331D01*
X11793167Y-16902331D02*
X11802691Y-16892808D01*
X11802691Y-16892808D02*
X11821739Y-16883284D01*
X11974120Y-17083284D02*
X11974120Y-16949950D01*
X11974120Y-16968998D02*
X11983643Y-16959474D01*
X11983643Y-16959474D02*
X12002691Y-16949950D01*
X12002691Y-16949950D02*
X12031263Y-16949950D01*
X12031263Y-16949950D02*
X12050310Y-16959474D01*
X12050310Y-16959474D02*
X12059834Y-16978522D01*
X12059834Y-16978522D02*
X12059834Y-17083284D01*
X12059834Y-16978522D02*
X12069358Y-16959474D01*
X12069358Y-16959474D02*
X12088405Y-16949950D01*
X12088405Y-16949950D02*
X12116977Y-16949950D01*
X12116977Y-16949950D02*
X12136024Y-16959474D01*
X12136024Y-16959474D02*
X12145548Y-16978522D01*
X12145548Y-16978522D02*
X12145548Y-17083284D01*
X12240786Y-17083284D02*
X12240786Y-16949950D01*
X12240786Y-16968998D02*
X12250310Y-16959474D01*
X12250310Y-16959474D02*
X12269358Y-16949950D01*
X12269358Y-16949950D02*
X12297929Y-16949950D01*
X12297929Y-16949950D02*
X12316977Y-16959474D01*
X12316977Y-16959474D02*
X12326501Y-16978522D01*
X12326501Y-16978522D02*
X12326501Y-17083284D01*
X12326501Y-16978522D02*
X12336024Y-16959474D01*
X12336024Y-16959474D02*
X12355072Y-16949950D01*
X12355072Y-16949950D02*
X12383643Y-16949950D01*
X12383643Y-16949950D02*
X12402691Y-16959474D01*
X12402691Y-16959474D02*
X12412215Y-16978522D01*
X12412215Y-16978522D02*
X12412215Y-17083284D01*
X12802691Y-16873760D02*
X12631263Y-17130903D01*
X13059834Y-16883284D02*
X13078882Y-16883284D01*
X13078882Y-16883284D02*
X13097929Y-16892808D01*
X13097929Y-16892808D02*
X13107453Y-16902331D01*
X13107453Y-16902331D02*
X13116977Y-16921379D01*
X13116977Y-16921379D02*
X13126501Y-16959474D01*
X13126501Y-16959474D02*
X13126501Y-17007093D01*
X13126501Y-17007093D02*
X13116977Y-17045189D01*
X13116977Y-17045189D02*
X13107453Y-17064236D01*
X13107453Y-17064236D02*
X13097929Y-17073760D01*
X13097929Y-17073760D02*
X13078882Y-17083284D01*
X13078882Y-17083284D02*
X13059834Y-17083284D01*
X13059834Y-17083284D02*
X13040786Y-17073760D01*
X13040786Y-17073760D02*
X13031263Y-17064236D01*
X13031263Y-17064236D02*
X13021739Y-17045189D01*
X13021739Y-17045189D02*
X13012215Y-17007093D01*
X13012215Y-17007093D02*
X13012215Y-16959474D01*
X13012215Y-16959474D02*
X13021739Y-16921379D01*
X13021739Y-16921379D02*
X13031263Y-16902331D01*
X13031263Y-16902331D02*
X13040786Y-16892808D01*
X13040786Y-16892808D02*
X13059834Y-16883284D01*
X13212215Y-17064236D02*
X13221739Y-17073760D01*
X13221739Y-17073760D02*
X13212215Y-17083284D01*
X13212215Y-17083284D02*
X13202691Y-17073760D01*
X13202691Y-17073760D02*
X13212215Y-17064236D01*
X13212215Y-17064236D02*
X13212215Y-17083284D01*
X13345548Y-16883284D02*
X13364596Y-16883284D01*
X13364596Y-16883284D02*
X13383644Y-16892808D01*
X13383644Y-16892808D02*
X13393167Y-16902331D01*
X13393167Y-16902331D02*
X13402691Y-16921379D01*
X13402691Y-16921379D02*
X13412215Y-16959474D01*
X13412215Y-16959474D02*
X13412215Y-17007093D01*
X13412215Y-17007093D02*
X13402691Y-17045189D01*
X13402691Y-17045189D02*
X13393167Y-17064236D01*
X13393167Y-17064236D02*
X13383644Y-17073760D01*
X13383644Y-17073760D02*
X13364596Y-17083284D01*
X13364596Y-17083284D02*
X13345548Y-17083284D01*
X13345548Y-17083284D02*
X13326501Y-17073760D01*
X13326501Y-17073760D02*
X13316977Y-17064236D01*
X13316977Y-17064236D02*
X13307453Y-17045189D01*
X13307453Y-17045189D02*
X13297929Y-17007093D01*
X13297929Y-17007093D02*
X13297929Y-16959474D01*
X13297929Y-16959474D02*
X13307453Y-16921379D01*
X13307453Y-16921379D02*
X13316977Y-16902331D01*
X13316977Y-16902331D02*
X13326501Y-16892808D01*
X13326501Y-16892808D02*
X13345548Y-16883284D01*
X13478882Y-16883284D02*
X13602691Y-16883284D01*
X13602691Y-16883284D02*
X13536025Y-16959474D01*
X13536025Y-16959474D02*
X13564596Y-16959474D01*
X13564596Y-16959474D02*
X13583644Y-16968998D01*
X13583644Y-16968998D02*
X13593167Y-16978522D01*
X13593167Y-16978522D02*
X13602691Y-16997570D01*
X13602691Y-16997570D02*
X13602691Y-17045189D01*
X13602691Y-17045189D02*
X13593167Y-17064236D01*
X13593167Y-17064236D02*
X13583644Y-17073760D01*
X13583644Y-17073760D02*
X13564596Y-17083284D01*
X13564596Y-17083284D02*
X13507453Y-17083284D01*
X13507453Y-17083284D02*
X13488406Y-17073760D01*
X13488406Y-17073760D02*
X13478882Y-17064236D01*
X13669358Y-16883284D02*
X13802691Y-16883284D01*
X13802691Y-16883284D02*
X13716977Y-17083284D01*
X13964596Y-16949950D02*
X13964596Y-17083284D01*
X13916977Y-16873760D02*
X13869358Y-17016617D01*
X13869358Y-17016617D02*
X13993167Y-17016617D01*
X14059834Y-16883284D02*
X14059834Y-16921379D01*
X14136025Y-16883284D02*
X14136025Y-16921379D01*
X14431263Y-17159474D02*
X14421739Y-17149950D01*
X14421739Y-17149950D02*
X14402691Y-17121379D01*
X14402691Y-17121379D02*
X14393168Y-17102331D01*
X14393168Y-17102331D02*
X14383644Y-17073760D01*
X14383644Y-17073760D02*
X14374120Y-17026141D01*
X14374120Y-17026141D02*
X14374120Y-16988046D01*
X14374120Y-16988046D02*
X14383644Y-16940427D01*
X14383644Y-16940427D02*
X14393168Y-16911855D01*
X14393168Y-16911855D02*
X14402691Y-16892808D01*
X14402691Y-16892808D02*
X14421739Y-16864236D01*
X14421739Y-16864236D02*
X14431263Y-16854712D01*
X14593168Y-16883284D02*
X14555072Y-16883284D01*
X14555072Y-16883284D02*
X14536025Y-16892808D01*
X14536025Y-16892808D02*
X14526501Y-16902331D01*
X14526501Y-16902331D02*
X14507453Y-16930903D01*
X14507453Y-16930903D02*
X14497929Y-16968998D01*
X14497929Y-16968998D02*
X14497929Y-17045189D01*
X14497929Y-17045189D02*
X14507453Y-17064236D01*
X14507453Y-17064236D02*
X14516977Y-17073760D01*
X14516977Y-17073760D02*
X14536025Y-17083284D01*
X14536025Y-17083284D02*
X14574120Y-17083284D01*
X14574120Y-17083284D02*
X14593168Y-17073760D01*
X14593168Y-17073760D02*
X14602691Y-17064236D01*
X14602691Y-17064236D02*
X14612215Y-17045189D01*
X14612215Y-17045189D02*
X14612215Y-16997570D01*
X14612215Y-16997570D02*
X14602691Y-16978522D01*
X14602691Y-16978522D02*
X14593168Y-16968998D01*
X14593168Y-16968998D02*
X14574120Y-16959474D01*
X14574120Y-16959474D02*
X14536025Y-16959474D01*
X14536025Y-16959474D02*
X14516977Y-16968998D01*
X14516977Y-16968998D02*
X14507453Y-16978522D01*
X14507453Y-16978522D02*
X14497929Y-16997570D01*
X14850310Y-17083284D02*
X14850310Y-16883284D01*
X14936025Y-17083284D02*
X14936025Y-16978522D01*
X14936025Y-16978522D02*
X14926501Y-16959474D01*
X14926501Y-16959474D02*
X14907453Y-16949950D01*
X14907453Y-16949950D02*
X14878882Y-16949950D01*
X14878882Y-16949950D02*
X14859834Y-16959474D01*
X14859834Y-16959474D02*
X14850310Y-16968998D01*
X15059834Y-17083284D02*
X15040787Y-17073760D01*
X15040787Y-17073760D02*
X15031263Y-17064236D01*
X15031263Y-17064236D02*
X15021739Y-17045189D01*
X15021739Y-17045189D02*
X15021739Y-16988046D01*
X15021739Y-16988046D02*
X15031263Y-16968998D01*
X15031263Y-16968998D02*
X15040787Y-16959474D01*
X15040787Y-16959474D02*
X15059834Y-16949950D01*
X15059834Y-16949950D02*
X15088406Y-16949950D01*
X15088406Y-16949950D02*
X15107453Y-16959474D01*
X15107453Y-16959474D02*
X15116977Y-16968998D01*
X15116977Y-16968998D02*
X15126501Y-16988046D01*
X15126501Y-16988046D02*
X15126501Y-17045189D01*
X15126501Y-17045189D02*
X15116977Y-17064236D01*
X15116977Y-17064236D02*
X15107453Y-17073760D01*
X15107453Y-17073760D02*
X15088406Y-17083284D01*
X15088406Y-17083284D02*
X15059834Y-17083284D01*
X15240787Y-17083284D02*
X15221739Y-17073760D01*
X15221739Y-17073760D02*
X15212215Y-17054712D01*
X15212215Y-17054712D02*
X15212215Y-16883284D01*
X15393168Y-17073760D02*
X15374120Y-17083284D01*
X15374120Y-17083284D02*
X15336025Y-17083284D01*
X15336025Y-17083284D02*
X15316977Y-17073760D01*
X15316977Y-17073760D02*
X15307453Y-17054712D01*
X15307453Y-17054712D02*
X15307453Y-16978522D01*
X15307453Y-16978522D02*
X15316977Y-16959474D01*
X15316977Y-16959474D02*
X15336025Y-16949950D01*
X15336025Y-16949950D02*
X15374120Y-16949950D01*
X15374120Y-16949950D02*
X15393168Y-16959474D01*
X15393168Y-16959474D02*
X15402691Y-16978522D01*
X15402691Y-16978522D02*
X15402691Y-16997570D01*
X15402691Y-16997570D02*
X15307453Y-17016617D01*
X15478882Y-17073760D02*
X15497930Y-17083284D01*
X15497930Y-17083284D02*
X15536025Y-17083284D01*
X15536025Y-17083284D02*
X15555072Y-17073760D01*
X15555072Y-17073760D02*
X15564596Y-17054712D01*
X15564596Y-17054712D02*
X15564596Y-17045189D01*
X15564596Y-17045189D02*
X15555072Y-17026141D01*
X15555072Y-17026141D02*
X15536025Y-17016617D01*
X15536025Y-17016617D02*
X15507453Y-17016617D01*
X15507453Y-17016617D02*
X15488406Y-17007093D01*
X15488406Y-17007093D02*
X15478882Y-16988046D01*
X15478882Y-16988046D02*
X15478882Y-16978522D01*
X15478882Y-16978522D02*
X15488406Y-16959474D01*
X15488406Y-16959474D02*
X15507453Y-16949950D01*
X15507453Y-16949950D02*
X15536025Y-16949950D01*
X15536025Y-16949950D02*
X15555072Y-16959474D01*
X15631263Y-17159474D02*
X15640787Y-17149950D01*
X15640787Y-17149950D02*
X15659834Y-17121379D01*
X15659834Y-17121379D02*
X15669358Y-17102331D01*
X15669358Y-17102331D02*
X15678882Y-17073760D01*
X15678882Y-17073760D02*
X15688406Y-17026141D01*
X15688406Y-17026141D02*
X15688406Y-16988046D01*
X15688406Y-16988046D02*
X15678882Y-16940427D01*
X15678882Y-16940427D02*
X15669358Y-16911855D01*
X15669358Y-16911855D02*
X15659834Y-16892808D01*
X15659834Y-16892808D02*
X15640787Y-16864236D01*
X15640787Y-16864236D02*
X15631263Y-16854712D01*
D13*
X10806200Y-17305800D02*
X10856200Y-17255800D01*
X10806200Y-17205800D01*
X10756200Y-17255800D01*
X10806200Y-17305800D01*
D12*
X11221739Y-17347284D02*
X11107453Y-17347284D01*
X11164596Y-17347284D02*
X11164596Y-17147284D01*
X11164596Y-17147284D02*
X11145548Y-17175855D01*
X11145548Y-17175855D02*
X11126501Y-17194903D01*
X11126501Y-17194903D02*
X11107453Y-17204427D01*
X11307453Y-17328236D02*
X11316977Y-17337760D01*
X11316977Y-17337760D02*
X11307453Y-17347284D01*
X11307453Y-17347284D02*
X11297929Y-17337760D01*
X11297929Y-17337760D02*
X11307453Y-17328236D01*
X11307453Y-17328236D02*
X11307453Y-17347284D01*
X11440786Y-17147284D02*
X11459834Y-17147284D01*
X11459834Y-17147284D02*
X11478882Y-17156808D01*
X11478882Y-17156808D02*
X11488405Y-17166331D01*
X11488405Y-17166331D02*
X11497929Y-17185379D01*
X11497929Y-17185379D02*
X11507453Y-17223474D01*
X11507453Y-17223474D02*
X11507453Y-17271093D01*
X11507453Y-17271093D02*
X11497929Y-17309189D01*
X11497929Y-17309189D02*
X11488405Y-17328236D01*
X11488405Y-17328236D02*
X11478882Y-17337760D01*
X11478882Y-17337760D02*
X11459834Y-17347284D01*
X11459834Y-17347284D02*
X11440786Y-17347284D01*
X11440786Y-17347284D02*
X11421739Y-17337760D01*
X11421739Y-17337760D02*
X11412215Y-17328236D01*
X11412215Y-17328236D02*
X11402691Y-17309189D01*
X11402691Y-17309189D02*
X11393167Y-17271093D01*
X11393167Y-17271093D02*
X11393167Y-17223474D01*
X11393167Y-17223474D02*
X11402691Y-17185379D01*
X11402691Y-17185379D02*
X11412215Y-17166331D01*
X11412215Y-17166331D02*
X11421739Y-17156808D01*
X11421739Y-17156808D02*
X11440786Y-17147284D01*
X11631262Y-17147284D02*
X11650310Y-17147284D01*
X11650310Y-17147284D02*
X11669358Y-17156808D01*
X11669358Y-17156808D02*
X11678882Y-17166331D01*
X11678882Y-17166331D02*
X11688405Y-17185379D01*
X11688405Y-17185379D02*
X11697929Y-17223474D01*
X11697929Y-17223474D02*
X11697929Y-17271093D01*
X11697929Y-17271093D02*
X11688405Y-17309189D01*
X11688405Y-17309189D02*
X11678882Y-17328236D01*
X11678882Y-17328236D02*
X11669358Y-17337760D01*
X11669358Y-17337760D02*
X11650310Y-17347284D01*
X11650310Y-17347284D02*
X11631262Y-17347284D01*
X11631262Y-17347284D02*
X11612215Y-17337760D01*
X11612215Y-17337760D02*
X11602691Y-17328236D01*
X11602691Y-17328236D02*
X11593167Y-17309189D01*
X11593167Y-17309189D02*
X11583643Y-17271093D01*
X11583643Y-17271093D02*
X11583643Y-17223474D01*
X11583643Y-17223474D02*
X11593167Y-17185379D01*
X11593167Y-17185379D02*
X11602691Y-17166331D01*
X11602691Y-17166331D02*
X11612215Y-17156808D01*
X11612215Y-17156808D02*
X11631262Y-17147284D01*
X11821739Y-17147284D02*
X11840786Y-17147284D01*
X11840786Y-17147284D02*
X11859834Y-17156808D01*
X11859834Y-17156808D02*
X11869358Y-17166331D01*
X11869358Y-17166331D02*
X11878882Y-17185379D01*
X11878882Y-17185379D02*
X11888405Y-17223474D01*
X11888405Y-17223474D02*
X11888405Y-17271093D01*
X11888405Y-17271093D02*
X11878882Y-17309189D01*
X11878882Y-17309189D02*
X11869358Y-17328236D01*
X11869358Y-17328236D02*
X11859834Y-17337760D01*
X11859834Y-17337760D02*
X11840786Y-17347284D01*
X11840786Y-17347284D02*
X11821739Y-17347284D01*
X11821739Y-17347284D02*
X11802691Y-17337760D01*
X11802691Y-17337760D02*
X11793167Y-17328236D01*
X11793167Y-17328236D02*
X11783643Y-17309189D01*
X11783643Y-17309189D02*
X11774120Y-17271093D01*
X11774120Y-17271093D02*
X11774120Y-17223474D01*
X11774120Y-17223474D02*
X11783643Y-17185379D01*
X11783643Y-17185379D02*
X11793167Y-17166331D01*
X11793167Y-17166331D02*
X11802691Y-17156808D01*
X11802691Y-17156808D02*
X11821739Y-17147284D01*
X11974120Y-17347284D02*
X11974120Y-17213950D01*
X11974120Y-17232998D02*
X11983643Y-17223474D01*
X11983643Y-17223474D02*
X12002691Y-17213950D01*
X12002691Y-17213950D02*
X12031263Y-17213950D01*
X12031263Y-17213950D02*
X12050310Y-17223474D01*
X12050310Y-17223474D02*
X12059834Y-17242522D01*
X12059834Y-17242522D02*
X12059834Y-17347284D01*
X12059834Y-17242522D02*
X12069358Y-17223474D01*
X12069358Y-17223474D02*
X12088405Y-17213950D01*
X12088405Y-17213950D02*
X12116977Y-17213950D01*
X12116977Y-17213950D02*
X12136024Y-17223474D01*
X12136024Y-17223474D02*
X12145548Y-17242522D01*
X12145548Y-17242522D02*
X12145548Y-17347284D01*
X12240786Y-17347284D02*
X12240786Y-17213950D01*
X12240786Y-17232998D02*
X12250310Y-17223474D01*
X12250310Y-17223474D02*
X12269358Y-17213950D01*
X12269358Y-17213950D02*
X12297929Y-17213950D01*
X12297929Y-17213950D02*
X12316977Y-17223474D01*
X12316977Y-17223474D02*
X12326501Y-17242522D01*
X12326501Y-17242522D02*
X12326501Y-17347284D01*
X12326501Y-17242522D02*
X12336024Y-17223474D01*
X12336024Y-17223474D02*
X12355072Y-17213950D01*
X12355072Y-17213950D02*
X12383643Y-17213950D01*
X12383643Y-17213950D02*
X12402691Y-17223474D01*
X12402691Y-17223474D02*
X12412215Y-17242522D01*
X12412215Y-17242522D02*
X12412215Y-17347284D01*
X12802691Y-17137760D02*
X12631263Y-17394903D01*
X13059834Y-17147284D02*
X13078882Y-17147284D01*
X13078882Y-17147284D02*
X13097929Y-17156808D01*
X13097929Y-17156808D02*
X13107453Y-17166331D01*
X13107453Y-17166331D02*
X13116977Y-17185379D01*
X13116977Y-17185379D02*
X13126501Y-17223474D01*
X13126501Y-17223474D02*
X13126501Y-17271093D01*
X13126501Y-17271093D02*
X13116977Y-17309189D01*
X13116977Y-17309189D02*
X13107453Y-17328236D01*
X13107453Y-17328236D02*
X13097929Y-17337760D01*
X13097929Y-17337760D02*
X13078882Y-17347284D01*
X13078882Y-17347284D02*
X13059834Y-17347284D01*
X13059834Y-17347284D02*
X13040786Y-17337760D01*
X13040786Y-17337760D02*
X13031263Y-17328236D01*
X13031263Y-17328236D02*
X13021739Y-17309189D01*
X13021739Y-17309189D02*
X13012215Y-17271093D01*
X13012215Y-17271093D02*
X13012215Y-17223474D01*
X13012215Y-17223474D02*
X13021739Y-17185379D01*
X13021739Y-17185379D02*
X13031263Y-17166331D01*
X13031263Y-17166331D02*
X13040786Y-17156808D01*
X13040786Y-17156808D02*
X13059834Y-17147284D01*
X13212215Y-17328236D02*
X13221739Y-17337760D01*
X13221739Y-17337760D02*
X13212215Y-17347284D01*
X13212215Y-17347284D02*
X13202691Y-17337760D01*
X13202691Y-17337760D02*
X13212215Y-17328236D01*
X13212215Y-17328236D02*
X13212215Y-17347284D01*
X13345548Y-17147284D02*
X13364596Y-17147284D01*
X13364596Y-17147284D02*
X13383644Y-17156808D01*
X13383644Y-17156808D02*
X13393167Y-17166331D01*
X13393167Y-17166331D02*
X13402691Y-17185379D01*
X13402691Y-17185379D02*
X13412215Y-17223474D01*
X13412215Y-17223474D02*
X13412215Y-17271093D01*
X13412215Y-17271093D02*
X13402691Y-17309189D01*
X13402691Y-17309189D02*
X13393167Y-17328236D01*
X13393167Y-17328236D02*
X13383644Y-17337760D01*
X13383644Y-17337760D02*
X13364596Y-17347284D01*
X13364596Y-17347284D02*
X13345548Y-17347284D01*
X13345548Y-17347284D02*
X13326501Y-17337760D01*
X13326501Y-17337760D02*
X13316977Y-17328236D01*
X13316977Y-17328236D02*
X13307453Y-17309189D01*
X13307453Y-17309189D02*
X13297929Y-17271093D01*
X13297929Y-17271093D02*
X13297929Y-17223474D01*
X13297929Y-17223474D02*
X13307453Y-17185379D01*
X13307453Y-17185379D02*
X13316977Y-17166331D01*
X13316977Y-17166331D02*
X13326501Y-17156808D01*
X13326501Y-17156808D02*
X13345548Y-17147284D01*
X13478882Y-17147284D02*
X13602691Y-17147284D01*
X13602691Y-17147284D02*
X13536025Y-17223474D01*
X13536025Y-17223474D02*
X13564596Y-17223474D01*
X13564596Y-17223474D02*
X13583644Y-17232998D01*
X13583644Y-17232998D02*
X13593167Y-17242522D01*
X13593167Y-17242522D02*
X13602691Y-17261570D01*
X13602691Y-17261570D02*
X13602691Y-17309189D01*
X13602691Y-17309189D02*
X13593167Y-17328236D01*
X13593167Y-17328236D02*
X13583644Y-17337760D01*
X13583644Y-17337760D02*
X13564596Y-17347284D01*
X13564596Y-17347284D02*
X13507453Y-17347284D01*
X13507453Y-17347284D02*
X13488406Y-17337760D01*
X13488406Y-17337760D02*
X13478882Y-17328236D01*
X13697929Y-17347284D02*
X13736025Y-17347284D01*
X13736025Y-17347284D02*
X13755072Y-17337760D01*
X13755072Y-17337760D02*
X13764596Y-17328236D01*
X13764596Y-17328236D02*
X13783644Y-17299665D01*
X13783644Y-17299665D02*
X13793167Y-17261570D01*
X13793167Y-17261570D02*
X13793167Y-17185379D01*
X13793167Y-17185379D02*
X13783644Y-17166331D01*
X13783644Y-17166331D02*
X13774120Y-17156808D01*
X13774120Y-17156808D02*
X13755072Y-17147284D01*
X13755072Y-17147284D02*
X13716977Y-17147284D01*
X13716977Y-17147284D02*
X13697929Y-17156808D01*
X13697929Y-17156808D02*
X13688406Y-17166331D01*
X13688406Y-17166331D02*
X13678882Y-17185379D01*
X13678882Y-17185379D02*
X13678882Y-17232998D01*
X13678882Y-17232998D02*
X13688406Y-17252046D01*
X13688406Y-17252046D02*
X13697929Y-17261570D01*
X13697929Y-17261570D02*
X13716977Y-17271093D01*
X13716977Y-17271093D02*
X13755072Y-17271093D01*
X13755072Y-17271093D02*
X13774120Y-17261570D01*
X13774120Y-17261570D02*
X13783644Y-17252046D01*
X13783644Y-17252046D02*
X13793167Y-17232998D01*
X13964596Y-17213950D02*
X13964596Y-17347284D01*
X13916977Y-17137760D02*
X13869358Y-17280617D01*
X13869358Y-17280617D02*
X13993167Y-17280617D01*
X14059834Y-17147284D02*
X14059834Y-17185379D01*
X14136025Y-17147284D02*
X14136025Y-17185379D01*
X14431263Y-17423474D02*
X14421739Y-17413950D01*
X14421739Y-17413950D02*
X14402691Y-17385379D01*
X14402691Y-17385379D02*
X14393168Y-17366331D01*
X14393168Y-17366331D02*
X14383644Y-17337760D01*
X14383644Y-17337760D02*
X14374120Y-17290141D01*
X14374120Y-17290141D02*
X14374120Y-17252046D01*
X14374120Y-17252046D02*
X14383644Y-17204427D01*
X14383644Y-17204427D02*
X14393168Y-17175855D01*
X14393168Y-17175855D02*
X14402691Y-17156808D01*
X14402691Y-17156808D02*
X14421739Y-17128236D01*
X14421739Y-17128236D02*
X14431263Y-17118712D01*
X14497929Y-17166331D02*
X14507453Y-17156808D01*
X14507453Y-17156808D02*
X14526501Y-17147284D01*
X14526501Y-17147284D02*
X14574120Y-17147284D01*
X14574120Y-17147284D02*
X14593168Y-17156808D01*
X14593168Y-17156808D02*
X14602691Y-17166331D01*
X14602691Y-17166331D02*
X14612215Y-17185379D01*
X14612215Y-17185379D02*
X14612215Y-17204427D01*
X14612215Y-17204427D02*
X14602691Y-17232998D01*
X14602691Y-17232998D02*
X14488406Y-17347284D01*
X14488406Y-17347284D02*
X14612215Y-17347284D01*
X14850310Y-17347284D02*
X14850310Y-17147284D01*
X14936025Y-17347284D02*
X14936025Y-17242522D01*
X14936025Y-17242522D02*
X14926501Y-17223474D01*
X14926501Y-17223474D02*
X14907453Y-17213950D01*
X14907453Y-17213950D02*
X14878882Y-17213950D01*
X14878882Y-17213950D02*
X14859834Y-17223474D01*
X14859834Y-17223474D02*
X14850310Y-17232998D01*
X15059834Y-17347284D02*
X15040787Y-17337760D01*
X15040787Y-17337760D02*
X15031263Y-17328236D01*
X15031263Y-17328236D02*
X15021739Y-17309189D01*
X15021739Y-17309189D02*
X15021739Y-17252046D01*
X15021739Y-17252046D02*
X15031263Y-17232998D01*
X15031263Y-17232998D02*
X15040787Y-17223474D01*
X15040787Y-17223474D02*
X15059834Y-17213950D01*
X15059834Y-17213950D02*
X15088406Y-17213950D01*
X15088406Y-17213950D02*
X15107453Y-17223474D01*
X15107453Y-17223474D02*
X15116977Y-17232998D01*
X15116977Y-17232998D02*
X15126501Y-17252046D01*
X15126501Y-17252046D02*
X15126501Y-17309189D01*
X15126501Y-17309189D02*
X15116977Y-17328236D01*
X15116977Y-17328236D02*
X15107453Y-17337760D01*
X15107453Y-17337760D02*
X15088406Y-17347284D01*
X15088406Y-17347284D02*
X15059834Y-17347284D01*
X15240787Y-17347284D02*
X15221739Y-17337760D01*
X15221739Y-17337760D02*
X15212215Y-17318712D01*
X15212215Y-17318712D02*
X15212215Y-17147284D01*
X15393168Y-17337760D02*
X15374120Y-17347284D01*
X15374120Y-17347284D02*
X15336025Y-17347284D01*
X15336025Y-17347284D02*
X15316977Y-17337760D01*
X15316977Y-17337760D02*
X15307453Y-17318712D01*
X15307453Y-17318712D02*
X15307453Y-17242522D01*
X15307453Y-17242522D02*
X15316977Y-17223474D01*
X15316977Y-17223474D02*
X15336025Y-17213950D01*
X15336025Y-17213950D02*
X15374120Y-17213950D01*
X15374120Y-17213950D02*
X15393168Y-17223474D01*
X15393168Y-17223474D02*
X15402691Y-17242522D01*
X15402691Y-17242522D02*
X15402691Y-17261570D01*
X15402691Y-17261570D02*
X15307453Y-17280617D01*
X15478882Y-17337760D02*
X15497930Y-17347284D01*
X15497930Y-17347284D02*
X15536025Y-17347284D01*
X15536025Y-17347284D02*
X15555072Y-17337760D01*
X15555072Y-17337760D02*
X15564596Y-17318712D01*
X15564596Y-17318712D02*
X15564596Y-17309189D01*
X15564596Y-17309189D02*
X15555072Y-17290141D01*
X15555072Y-17290141D02*
X15536025Y-17280617D01*
X15536025Y-17280617D02*
X15507453Y-17280617D01*
X15507453Y-17280617D02*
X15488406Y-17271093D01*
X15488406Y-17271093D02*
X15478882Y-17252046D01*
X15478882Y-17252046D02*
X15478882Y-17242522D01*
X15478882Y-17242522D02*
X15488406Y-17223474D01*
X15488406Y-17223474D02*
X15507453Y-17213950D01*
X15507453Y-17213950D02*
X15536025Y-17213950D01*
X15536025Y-17213950D02*
X15555072Y-17223474D01*
X15631263Y-17423474D02*
X15640787Y-17413950D01*
X15640787Y-17413950D02*
X15659834Y-17385379D01*
X15659834Y-17385379D02*
X15669358Y-17366331D01*
X15669358Y-17366331D02*
X15678882Y-17337760D01*
X15678882Y-17337760D02*
X15688406Y-17290141D01*
X15688406Y-17290141D02*
X15688406Y-17252046D01*
X15688406Y-17252046D02*
X15678882Y-17204427D01*
X15678882Y-17204427D02*
X15669358Y-17175855D01*
X15669358Y-17175855D02*
X15659834Y-17156808D01*
X15659834Y-17156808D02*
X15640787Y-17128236D01*
X15640787Y-17128236D02*
X15631263Y-17118712D01*
D14*
X10746200Y-17464800D02*
X10856200Y-17574800D01*
X10856200Y-17464800D02*
X10746200Y-17574800D01*
X10856200Y-17519800D02*
G75*
G02*
X10746200Y-17519800I-55000J0D01*
G01*
X10746200Y-17519800D02*
G75*
G02*
X10856200Y-17519800I55000J0D01*
G01*
D12*
X11221739Y-17611284D02*
X11107453Y-17611284D01*
X11164596Y-17611284D02*
X11164596Y-17411284D01*
X11164596Y-17411284D02*
X11145548Y-17439855D01*
X11145548Y-17439855D02*
X11126501Y-17458903D01*
X11126501Y-17458903D02*
X11107453Y-17468427D01*
X11307453Y-17592236D02*
X11316977Y-17601760D01*
X11316977Y-17601760D02*
X11307453Y-17611284D01*
X11307453Y-17611284D02*
X11297929Y-17601760D01*
X11297929Y-17601760D02*
X11307453Y-17592236D01*
X11307453Y-17592236D02*
X11307453Y-17611284D01*
X11507453Y-17611284D02*
X11393167Y-17611284D01*
X11450310Y-17611284D02*
X11450310Y-17411284D01*
X11450310Y-17411284D02*
X11431262Y-17439855D01*
X11431262Y-17439855D02*
X11412215Y-17458903D01*
X11412215Y-17458903D02*
X11393167Y-17468427D01*
X11631262Y-17411284D02*
X11650310Y-17411284D01*
X11650310Y-17411284D02*
X11669358Y-17420808D01*
X11669358Y-17420808D02*
X11678882Y-17430331D01*
X11678882Y-17430331D02*
X11688405Y-17449379D01*
X11688405Y-17449379D02*
X11697929Y-17487474D01*
X11697929Y-17487474D02*
X11697929Y-17535093D01*
X11697929Y-17535093D02*
X11688405Y-17573189D01*
X11688405Y-17573189D02*
X11678882Y-17592236D01*
X11678882Y-17592236D02*
X11669358Y-17601760D01*
X11669358Y-17601760D02*
X11650310Y-17611284D01*
X11650310Y-17611284D02*
X11631262Y-17611284D01*
X11631262Y-17611284D02*
X11612215Y-17601760D01*
X11612215Y-17601760D02*
X11602691Y-17592236D01*
X11602691Y-17592236D02*
X11593167Y-17573189D01*
X11593167Y-17573189D02*
X11583643Y-17535093D01*
X11583643Y-17535093D02*
X11583643Y-17487474D01*
X11583643Y-17487474D02*
X11593167Y-17449379D01*
X11593167Y-17449379D02*
X11602691Y-17430331D01*
X11602691Y-17430331D02*
X11612215Y-17420808D01*
X11612215Y-17420808D02*
X11631262Y-17411284D01*
X11821739Y-17411284D02*
X11840786Y-17411284D01*
X11840786Y-17411284D02*
X11859834Y-17420808D01*
X11859834Y-17420808D02*
X11869358Y-17430331D01*
X11869358Y-17430331D02*
X11878882Y-17449379D01*
X11878882Y-17449379D02*
X11888405Y-17487474D01*
X11888405Y-17487474D02*
X11888405Y-17535093D01*
X11888405Y-17535093D02*
X11878882Y-17573189D01*
X11878882Y-17573189D02*
X11869358Y-17592236D01*
X11869358Y-17592236D02*
X11859834Y-17601760D01*
X11859834Y-17601760D02*
X11840786Y-17611284D01*
X11840786Y-17611284D02*
X11821739Y-17611284D01*
X11821739Y-17611284D02*
X11802691Y-17601760D01*
X11802691Y-17601760D02*
X11793167Y-17592236D01*
X11793167Y-17592236D02*
X11783643Y-17573189D01*
X11783643Y-17573189D02*
X11774120Y-17535093D01*
X11774120Y-17535093D02*
X11774120Y-17487474D01*
X11774120Y-17487474D02*
X11783643Y-17449379D01*
X11783643Y-17449379D02*
X11793167Y-17430331D01*
X11793167Y-17430331D02*
X11802691Y-17420808D01*
X11802691Y-17420808D02*
X11821739Y-17411284D01*
X11974120Y-17611284D02*
X11974120Y-17477950D01*
X11974120Y-17496998D02*
X11983643Y-17487474D01*
X11983643Y-17487474D02*
X12002691Y-17477950D01*
X12002691Y-17477950D02*
X12031263Y-17477950D01*
X12031263Y-17477950D02*
X12050310Y-17487474D01*
X12050310Y-17487474D02*
X12059834Y-17506522D01*
X12059834Y-17506522D02*
X12059834Y-17611284D01*
X12059834Y-17506522D02*
X12069358Y-17487474D01*
X12069358Y-17487474D02*
X12088405Y-17477950D01*
X12088405Y-17477950D02*
X12116977Y-17477950D01*
X12116977Y-17477950D02*
X12136024Y-17487474D01*
X12136024Y-17487474D02*
X12145548Y-17506522D01*
X12145548Y-17506522D02*
X12145548Y-17611284D01*
X12240786Y-17611284D02*
X12240786Y-17477950D01*
X12240786Y-17496998D02*
X12250310Y-17487474D01*
X12250310Y-17487474D02*
X12269358Y-17477950D01*
X12269358Y-17477950D02*
X12297929Y-17477950D01*
X12297929Y-17477950D02*
X12316977Y-17487474D01*
X12316977Y-17487474D02*
X12326501Y-17506522D01*
X12326501Y-17506522D02*
X12326501Y-17611284D01*
X12326501Y-17506522D02*
X12336024Y-17487474D01*
X12336024Y-17487474D02*
X12355072Y-17477950D01*
X12355072Y-17477950D02*
X12383643Y-17477950D01*
X12383643Y-17477950D02*
X12402691Y-17487474D01*
X12402691Y-17487474D02*
X12412215Y-17506522D01*
X12412215Y-17506522D02*
X12412215Y-17611284D01*
X12802691Y-17401760D02*
X12631263Y-17658903D01*
X13059834Y-17411284D02*
X13078882Y-17411284D01*
X13078882Y-17411284D02*
X13097929Y-17420808D01*
X13097929Y-17420808D02*
X13107453Y-17430331D01*
X13107453Y-17430331D02*
X13116977Y-17449379D01*
X13116977Y-17449379D02*
X13126501Y-17487474D01*
X13126501Y-17487474D02*
X13126501Y-17535093D01*
X13126501Y-17535093D02*
X13116977Y-17573189D01*
X13116977Y-17573189D02*
X13107453Y-17592236D01*
X13107453Y-17592236D02*
X13097929Y-17601760D01*
X13097929Y-17601760D02*
X13078882Y-17611284D01*
X13078882Y-17611284D02*
X13059834Y-17611284D01*
X13059834Y-17611284D02*
X13040786Y-17601760D01*
X13040786Y-17601760D02*
X13031263Y-17592236D01*
X13031263Y-17592236D02*
X13021739Y-17573189D01*
X13021739Y-17573189D02*
X13012215Y-17535093D01*
X13012215Y-17535093D02*
X13012215Y-17487474D01*
X13012215Y-17487474D02*
X13021739Y-17449379D01*
X13021739Y-17449379D02*
X13031263Y-17430331D01*
X13031263Y-17430331D02*
X13040786Y-17420808D01*
X13040786Y-17420808D02*
X13059834Y-17411284D01*
X13212215Y-17592236D02*
X13221739Y-17601760D01*
X13221739Y-17601760D02*
X13212215Y-17611284D01*
X13212215Y-17611284D02*
X13202691Y-17601760D01*
X13202691Y-17601760D02*
X13212215Y-17592236D01*
X13212215Y-17592236D02*
X13212215Y-17611284D01*
X13345548Y-17411284D02*
X13364596Y-17411284D01*
X13364596Y-17411284D02*
X13383644Y-17420808D01*
X13383644Y-17420808D02*
X13393167Y-17430331D01*
X13393167Y-17430331D02*
X13402691Y-17449379D01*
X13402691Y-17449379D02*
X13412215Y-17487474D01*
X13412215Y-17487474D02*
X13412215Y-17535093D01*
X13412215Y-17535093D02*
X13402691Y-17573189D01*
X13402691Y-17573189D02*
X13393167Y-17592236D01*
X13393167Y-17592236D02*
X13383644Y-17601760D01*
X13383644Y-17601760D02*
X13364596Y-17611284D01*
X13364596Y-17611284D02*
X13345548Y-17611284D01*
X13345548Y-17611284D02*
X13326501Y-17601760D01*
X13326501Y-17601760D02*
X13316977Y-17592236D01*
X13316977Y-17592236D02*
X13307453Y-17573189D01*
X13307453Y-17573189D02*
X13297929Y-17535093D01*
X13297929Y-17535093D02*
X13297929Y-17487474D01*
X13297929Y-17487474D02*
X13307453Y-17449379D01*
X13307453Y-17449379D02*
X13316977Y-17430331D01*
X13316977Y-17430331D02*
X13326501Y-17420808D01*
X13326501Y-17420808D02*
X13345548Y-17411284D01*
X13583644Y-17477950D02*
X13583644Y-17611284D01*
X13536025Y-17401760D02*
X13488406Y-17544617D01*
X13488406Y-17544617D02*
X13612215Y-17544617D01*
X13669358Y-17411284D02*
X13793167Y-17411284D01*
X13793167Y-17411284D02*
X13726501Y-17487474D01*
X13726501Y-17487474D02*
X13755072Y-17487474D01*
X13755072Y-17487474D02*
X13774120Y-17496998D01*
X13774120Y-17496998D02*
X13783644Y-17506522D01*
X13783644Y-17506522D02*
X13793167Y-17525570D01*
X13793167Y-17525570D02*
X13793167Y-17573189D01*
X13793167Y-17573189D02*
X13783644Y-17592236D01*
X13783644Y-17592236D02*
X13774120Y-17601760D01*
X13774120Y-17601760D02*
X13755072Y-17611284D01*
X13755072Y-17611284D02*
X13697929Y-17611284D01*
X13697929Y-17611284D02*
X13678882Y-17601760D01*
X13678882Y-17601760D02*
X13669358Y-17592236D01*
X13859834Y-17411284D02*
X13983644Y-17411284D01*
X13983644Y-17411284D02*
X13916977Y-17487474D01*
X13916977Y-17487474D02*
X13945548Y-17487474D01*
X13945548Y-17487474D02*
X13964596Y-17496998D01*
X13964596Y-17496998D02*
X13974120Y-17506522D01*
X13974120Y-17506522D02*
X13983644Y-17525570D01*
X13983644Y-17525570D02*
X13983644Y-17573189D01*
X13983644Y-17573189D02*
X13974120Y-17592236D01*
X13974120Y-17592236D02*
X13964596Y-17601760D01*
X13964596Y-17601760D02*
X13945548Y-17611284D01*
X13945548Y-17611284D02*
X13888406Y-17611284D01*
X13888406Y-17611284D02*
X13869358Y-17601760D01*
X13869358Y-17601760D02*
X13859834Y-17592236D01*
X14059834Y-17411284D02*
X14059834Y-17449379D01*
X14136025Y-17411284D02*
X14136025Y-17449379D01*
X14431263Y-17687474D02*
X14421739Y-17677950D01*
X14421739Y-17677950D02*
X14402691Y-17649379D01*
X14402691Y-17649379D02*
X14393168Y-17630331D01*
X14393168Y-17630331D02*
X14383644Y-17601760D01*
X14383644Y-17601760D02*
X14374120Y-17554141D01*
X14374120Y-17554141D02*
X14374120Y-17516046D01*
X14374120Y-17516046D02*
X14383644Y-17468427D01*
X14383644Y-17468427D02*
X14393168Y-17439855D01*
X14393168Y-17439855D02*
X14402691Y-17420808D01*
X14402691Y-17420808D02*
X14421739Y-17392236D01*
X14421739Y-17392236D02*
X14431263Y-17382712D01*
X14612215Y-17611284D02*
X14497929Y-17611284D01*
X14555072Y-17611284D02*
X14555072Y-17411284D01*
X14555072Y-17411284D02*
X14536025Y-17439855D01*
X14536025Y-17439855D02*
X14516977Y-17458903D01*
X14516977Y-17458903D02*
X14497929Y-17468427D01*
X14793168Y-17411284D02*
X14697929Y-17411284D01*
X14697929Y-17411284D02*
X14688406Y-17506522D01*
X14688406Y-17506522D02*
X14697929Y-17496998D01*
X14697929Y-17496998D02*
X14716977Y-17487474D01*
X14716977Y-17487474D02*
X14764596Y-17487474D01*
X14764596Y-17487474D02*
X14783644Y-17496998D01*
X14783644Y-17496998D02*
X14793168Y-17506522D01*
X14793168Y-17506522D02*
X14802691Y-17525570D01*
X14802691Y-17525570D02*
X14802691Y-17573189D01*
X14802691Y-17573189D02*
X14793168Y-17592236D01*
X14793168Y-17592236D02*
X14783644Y-17601760D01*
X14783644Y-17601760D02*
X14764596Y-17611284D01*
X14764596Y-17611284D02*
X14716977Y-17611284D01*
X14716977Y-17611284D02*
X14697929Y-17601760D01*
X14697929Y-17601760D02*
X14688406Y-17592236D01*
X15040787Y-17611284D02*
X15040787Y-17411284D01*
X15126501Y-17611284D02*
X15126501Y-17506522D01*
X15126501Y-17506522D02*
X15116977Y-17487474D01*
X15116977Y-17487474D02*
X15097930Y-17477950D01*
X15097930Y-17477950D02*
X15069358Y-17477950D01*
X15069358Y-17477950D02*
X15050310Y-17487474D01*
X15050310Y-17487474D02*
X15040787Y-17496998D01*
X15250310Y-17611284D02*
X15231263Y-17601760D01*
X15231263Y-17601760D02*
X15221739Y-17592236D01*
X15221739Y-17592236D02*
X15212215Y-17573189D01*
X15212215Y-17573189D02*
X15212215Y-17516046D01*
X15212215Y-17516046D02*
X15221739Y-17496998D01*
X15221739Y-17496998D02*
X15231263Y-17487474D01*
X15231263Y-17487474D02*
X15250310Y-17477950D01*
X15250310Y-17477950D02*
X15278882Y-17477950D01*
X15278882Y-17477950D02*
X15297930Y-17487474D01*
X15297930Y-17487474D02*
X15307453Y-17496998D01*
X15307453Y-17496998D02*
X15316977Y-17516046D01*
X15316977Y-17516046D02*
X15316977Y-17573189D01*
X15316977Y-17573189D02*
X15307453Y-17592236D01*
X15307453Y-17592236D02*
X15297930Y-17601760D01*
X15297930Y-17601760D02*
X15278882Y-17611284D01*
X15278882Y-17611284D02*
X15250310Y-17611284D01*
X15431263Y-17611284D02*
X15412215Y-17601760D01*
X15412215Y-17601760D02*
X15402691Y-17582712D01*
X15402691Y-17582712D02*
X15402691Y-17411284D01*
X15583644Y-17601760D02*
X15564596Y-17611284D01*
X15564596Y-17611284D02*
X15526501Y-17611284D01*
X15526501Y-17611284D02*
X15507453Y-17601760D01*
X15507453Y-17601760D02*
X15497930Y-17582712D01*
X15497930Y-17582712D02*
X15497930Y-17506522D01*
X15497930Y-17506522D02*
X15507453Y-17487474D01*
X15507453Y-17487474D02*
X15526501Y-17477950D01*
X15526501Y-17477950D02*
X15564596Y-17477950D01*
X15564596Y-17477950D02*
X15583644Y-17487474D01*
X15583644Y-17487474D02*
X15593168Y-17506522D01*
X15593168Y-17506522D02*
X15593168Y-17525570D01*
X15593168Y-17525570D02*
X15497930Y-17544617D01*
X15669358Y-17601760D02*
X15688406Y-17611284D01*
X15688406Y-17611284D02*
X15726501Y-17611284D01*
X15726501Y-17611284D02*
X15745549Y-17601760D01*
X15745549Y-17601760D02*
X15755072Y-17582712D01*
X15755072Y-17582712D02*
X15755072Y-17573189D01*
X15755072Y-17573189D02*
X15745549Y-17554141D01*
X15745549Y-17554141D02*
X15726501Y-17544617D01*
X15726501Y-17544617D02*
X15697930Y-17544617D01*
X15697930Y-17544617D02*
X15678882Y-17535093D01*
X15678882Y-17535093D02*
X15669358Y-17516046D01*
X15669358Y-17516046D02*
X15669358Y-17506522D01*
X15669358Y-17506522D02*
X15678882Y-17487474D01*
X15678882Y-17487474D02*
X15697930Y-17477950D01*
X15697930Y-17477950D02*
X15726501Y-17477950D01*
X15726501Y-17477950D02*
X15745549Y-17487474D01*
X15821739Y-17687474D02*
X15831263Y-17677950D01*
X15831263Y-17677950D02*
X15850311Y-17649379D01*
X15850311Y-17649379D02*
X15859834Y-17630331D01*
X15859834Y-17630331D02*
X15869358Y-17601760D01*
X15869358Y-17601760D02*
X15878882Y-17554141D01*
X15878882Y-17554141D02*
X15878882Y-17516046D01*
X15878882Y-17516046D02*
X15869358Y-17468427D01*
X15869358Y-17468427D02*
X15859834Y-17439855D01*
X15859834Y-17439855D02*
X15850311Y-17420808D01*
X15850311Y-17420808D02*
X15831263Y-17392236D01*
X15831263Y-17392236D02*
X15821739Y-17382712D01*
M02*
