%TF.GenerationSoftware,KiCad,Pcbnew,8.0.8*%
%TF.CreationDate,2025-06-13T10:02:37+02:00*%
%TF.ProjectId,Shield,53686965-6c64-42e6-9b69-6361645f7063,rev?*%
%TF.SameCoordinates,Original*%
%TF.FileFunction,Drillmap*%
%TF.FilePolarity,Positive*%
%FSLAX45Y45*%
G04 Gerber Fmt 4.5, Leading zero omitted, Abs format (unit mm)*
G04 Created by KiCad (PCBNEW 8.0.8) date 2025-06-13 10:02:37*
%MOMM*%
%LPD*%
G01*
G04 APERTURE LIST*
%ADD10C,0.050000*%
%ADD11C,0.300000*%
%ADD12C,0.200000*%
G04 APERTURE END LIST*
D10*
X17879200Y-15138400D02*
G75*
G02*
X17579200Y-15138400I-150000J0D01*
G01*
X17579200Y-15138400D02*
G75*
G02*
X17879200Y-15138400I150000J0D01*
G01*
D11*
X10871200Y-6654800D02*
X18135600Y-6654800D01*
X18135600Y-15544800D01*
X10871200Y-15544800D01*
X10871200Y-6654800D01*
D10*
X17879200Y-7061200D02*
G75*
G02*
X17579200Y-7061200I-150000J0D01*
G01*
X17579200Y-7061200D02*
G75*
G02*
X17879200Y-7061200I150000J0D01*
G01*
X11427600Y-7061200D02*
G75*
G02*
X11127600Y-7061200I-150000J0D01*
G01*
X11127600Y-7061200D02*
G75*
G02*
X11427600Y-7061200I150000J0D01*
G01*
X11427600Y-15138400D02*
G75*
G02*
X11127600Y-15138400I-150000J0D01*
G01*
X11127600Y-15138400D02*
G75*
G02*
X11427600Y-15138400I150000J0D01*
G01*
D12*
X11116977Y-15871284D02*
X11116977Y-15671284D01*
X11116977Y-15671284D02*
X11164596Y-15671284D01*
X11164596Y-15671284D02*
X11193167Y-15680808D01*
X11193167Y-15680808D02*
X11212215Y-15699855D01*
X11212215Y-15699855D02*
X11221739Y-15718903D01*
X11221739Y-15718903D02*
X11231262Y-15756998D01*
X11231262Y-15756998D02*
X11231262Y-15785569D01*
X11231262Y-15785569D02*
X11221739Y-15823665D01*
X11221739Y-15823665D02*
X11212215Y-15842712D01*
X11212215Y-15842712D02*
X11193167Y-15861760D01*
X11193167Y-15861760D02*
X11164596Y-15871284D01*
X11164596Y-15871284D02*
X11116977Y-15871284D01*
X11316977Y-15871284D02*
X11316977Y-15737950D01*
X11316977Y-15776046D02*
X11326501Y-15756998D01*
X11326501Y-15756998D02*
X11336024Y-15747474D01*
X11336024Y-15747474D02*
X11355072Y-15737950D01*
X11355072Y-15737950D02*
X11374120Y-15737950D01*
X11440786Y-15871284D02*
X11440786Y-15737950D01*
X11440786Y-15671284D02*
X11431262Y-15680808D01*
X11431262Y-15680808D02*
X11440786Y-15690331D01*
X11440786Y-15690331D02*
X11450310Y-15680808D01*
X11450310Y-15680808D02*
X11440786Y-15671284D01*
X11440786Y-15671284D02*
X11440786Y-15690331D01*
X11564596Y-15871284D02*
X11545548Y-15861760D01*
X11545548Y-15861760D02*
X11536024Y-15842712D01*
X11536024Y-15842712D02*
X11536024Y-15671284D01*
X11669358Y-15871284D02*
X11650310Y-15861760D01*
X11650310Y-15861760D02*
X11640786Y-15842712D01*
X11640786Y-15842712D02*
X11640786Y-15671284D01*
X11897929Y-15871284D02*
X11897929Y-15671284D01*
X11897929Y-15671284D02*
X11964596Y-15814141D01*
X11964596Y-15814141D02*
X12031262Y-15671284D01*
X12031262Y-15671284D02*
X12031262Y-15871284D01*
X12212215Y-15871284D02*
X12212215Y-15766522D01*
X12212215Y-15766522D02*
X12202691Y-15747474D01*
X12202691Y-15747474D02*
X12183643Y-15737950D01*
X12183643Y-15737950D02*
X12145548Y-15737950D01*
X12145548Y-15737950D02*
X12126501Y-15747474D01*
X12212215Y-15861760D02*
X12193167Y-15871284D01*
X12193167Y-15871284D02*
X12145548Y-15871284D01*
X12145548Y-15871284D02*
X12126501Y-15861760D01*
X12126501Y-15861760D02*
X12116977Y-15842712D01*
X12116977Y-15842712D02*
X12116977Y-15823665D01*
X12116977Y-15823665D02*
X12126501Y-15804617D01*
X12126501Y-15804617D02*
X12145548Y-15795093D01*
X12145548Y-15795093D02*
X12193167Y-15795093D01*
X12193167Y-15795093D02*
X12212215Y-15785569D01*
X12307453Y-15737950D02*
X12307453Y-15937950D01*
X12307453Y-15747474D02*
X12326501Y-15737950D01*
X12326501Y-15737950D02*
X12364596Y-15737950D01*
X12364596Y-15737950D02*
X12383643Y-15747474D01*
X12383643Y-15747474D02*
X12393167Y-15756998D01*
X12393167Y-15756998D02*
X12402691Y-15776046D01*
X12402691Y-15776046D02*
X12402691Y-15833188D01*
X12402691Y-15833188D02*
X12393167Y-15852236D01*
X12393167Y-15852236D02*
X12383643Y-15861760D01*
X12383643Y-15861760D02*
X12364596Y-15871284D01*
X12364596Y-15871284D02*
X12326501Y-15871284D01*
X12326501Y-15871284D02*
X12307453Y-15861760D01*
X12488405Y-15852236D02*
X12497929Y-15861760D01*
X12497929Y-15861760D02*
X12488405Y-15871284D01*
X12488405Y-15871284D02*
X12478882Y-15861760D01*
X12478882Y-15861760D02*
X12488405Y-15852236D01*
X12488405Y-15852236D02*
X12488405Y-15871284D01*
X12488405Y-15747474D02*
X12497929Y-15756998D01*
X12497929Y-15756998D02*
X12488405Y-15766522D01*
X12488405Y-15766522D02*
X12478882Y-15756998D01*
X12478882Y-15756998D02*
X12488405Y-15747474D01*
X12488405Y-15747474D02*
X12488405Y-15766522D01*
M02*
