M48
; DRILL file {KiCad 8.0.8} date 2025-06-13T10:02:36+0200
; FORMAT={-:-/ absolute / inch / decimal}
; #@! TF.CreationDate,2025-06-13T10:02:36+02:00
; #@! TF.GenerationSoftware,Kicad,Pcbnew,8.0.8
; #@! TF.FileFunction,Plated,1,2,PTH
FMAT,2
INCH
; #@! TA.AperFunction,Plated,PTH,ComponentDrill
T1C0.0295
; #@! TA.AperFunction,Plated,PTH,ComponentDrill
T2C0.0315
; #@! TA.AperFunction,Plated,PTH,ComponentDrill
T3C0.0354
; #@! TA.AperFunction,Plated,PTH,ComponentDrill
T4C0.0374
; #@! TA.AperFunction,Plated,PTH,ComponentDrill
T5C0.0394
; #@! TA.AperFunction,Plated,PTH,ComponentDrill
T6C0.0433
%
G90
G05
T1
X4.5433Y-4.4806
X4.5433Y-4.5594
T2
X4.485Y-5.0874
X4.485Y-5.3826
X4.8Y-3.18
X4.8Y-4.08
X4.9Y-3.18
X4.9Y-4.08
X5.0Y-3.18
X5.0Y-4.08
X5.1Y-3.18
X5.1Y-4.08
X5.2Y-3.18
X5.2Y-4.08
X5.3Y-3.18
X5.3Y-4.08
X5.4Y-3.18
X5.4Y-4.08
X5.5Y-3.18
X5.5Y-4.08
X5.56Y-2.88
X5.6Y-3.18
X5.6Y-4.08
X5.66Y-2.88
X5.7Y-3.18
X5.7Y-4.08
X5.76Y-2.88
X5.8Y-3.18
X5.8Y-4.08
X5.86Y-2.88
X5.9Y-3.18
X5.9Y-4.08
X6.0Y-3.18
X6.0Y-4.08
X6.1Y-3.18
X6.1Y-4.08
X6.12Y-2.86
X6.12Y-3.0
X6.2Y-3.18
X6.2Y-4.08
X6.3Y-3.18
X6.3Y-4.08
X6.4Y-3.18
X6.4Y-4.08
X6.4999Y-3.1801
X6.5Y-4.08
X6.52Y-2.86
X6.52Y-3.0
X6.555Y-5.255
X6.555Y-5.655
X6.5999Y-3.1801
X6.6Y-4.08
X6.7Y-4.34
X6.7Y-4.74
X6.705Y-5.255
X6.705Y-5.655
X6.82Y-4.04
X6.82Y-4.44
X6.94Y-3.76
X6.94Y-4.16
T3
X4.6122Y-2.8036
X4.6498Y-6.0334
X4.7122Y-2.8036
X4.7498Y-6.0334
X6.67Y-6.0334
X6.707Y-2.8036
X6.77Y-6.0334
X6.807Y-2.8036
T4
X6.9787Y-4.703
X6.9787Y-4.8014
X6.9787Y-4.8998
X6.9787Y-4.9983
X6.9787Y-5.0967
X6.9787Y-5.1951
T5
X4.48Y-4.8098
X4.48Y-4.9098
T6
X4.88Y-4.773
X4.88Y-4.96
X4.9922Y-4.397
X4.9922Y-4.4994
X5.0926Y-4.397
X5.191Y-4.399
X5.2894Y-4.399
X5.3898Y-4.399
X5.4902Y-4.399
X5.4902Y-4.4994
X5.6772Y-4.4876
X5.8702Y-4.4876
X6.0631Y-4.4876
X6.258Y-4.773
X6.258Y-4.962
M30
