999
"DXF R12 Output" (www.mydxf.blogspot.com)
 0 
SECTION
 2 
HEADER
 9 
$ACADVER
 1 
AC1009
 9 
$EXTMIN
 10 
 0 
 20 
 0 
 9 
$EXTMAX
 10 
 8.5 
 20 
 11 
 0 
ENDSEC
 0 
SECTION
 2 
ENTITIES
0
LINE
8
Layer 1
10
0.793749
20
109.826749
11
-0.793749
21
108.239251
0
LINE
8
Layer 1
10
0.000000
20
110.355915
11
0.000000
21
107.710085
0
LINE
8
Layer 1
10
2.116664
20
107.974668
11
1.058332
21
106.916336
0
LINE
8
Layer 1
10
1.587498
20
108.503834
11
0.529166
21
107.445502
0
LINE
8
Layer 1
10
1.058332
20
109.033000
11
0.000000
21
107.974668
0
LINE
8
0
10
113.419877
20
22.257359
11
113.293611
21
22.879560
0
LINE
8
0
10
113.293611
20
22.879560
11
112.950598
21
23.387539
0
LINE
8
0
10
112.950598
20
23.387539
11
112.442225
21
23.729967
0
LINE
8
0
10
112.442225
20
23.729967
11
111.819880
21
23.855517
0
LINE
8
0
10
111.819880
20
23.855517
11
111.197534
21
23.729967
0
LINE
8
0
10
111.197534
20
23.729967
11
110.689161
21
23.387539
0
LINE
8
0
10
110.689161
20
23.387539
11
110.346148
21
22.879560
0
LINE
8
0
10
110.346148
20
22.879560
11
110.219883
21
22.257359
0
LINE
8
0
10
110.219883
20
22.257359
11
110.346148
21
21.635159
0
LINE
8
0
10
110.346148
20
21.635159
11
110.689161
21
21.127180
0
LINE
8
0
10
110.689161
20
21.127180
11
111.197534
21
20.784751
0
LINE
8
0
10
111.197534
20
20.784751
11
111.819880
21
20.659201
0
LINE
8
0
10
111.819880
20
20.659201
11
112.442225
21
20.784751
0
LINE
8
0
10
112.442225
20
20.784751
11
112.950598
21
21.127180
0
LINE
8
0
10
112.950598
20
21.127180
11
113.293611
21
21.635159
0
LINE
8
0
10
113.293611
20
21.635159
11
113.419877
21
22.257359
0
LINE
8
0
10
113.419877
20
22.257359
11
113.419877
21
22.257359
0
LINE
8
0
10
62.149943
20
64.917304
11
61.935584
21
65.717303
0
LINE
8
0
10
61.935584
20
65.717303
11
61.349944
21
66.302943
0
LINE
8
0
10
61.349944
20
66.302943
11
60.549945
21
66.517302
0
LINE
8
0
10
60.549945
20
66.517302
11
59.749946
21
66.302943
0
LINE
8
0
10
59.749946
20
66.302943
11
59.164306
21
65.717303
0
LINE
8
0
10
59.164306
20
65.717303
11
58.949947
21
64.917304
0
LINE
8
0
10
58.949947
20
64.917304
11
59.164306
21
64.117305
0
LINE
8
0
10
59.164306
20
64.117305
11
59.749946
21
63.531665
0
LINE
8
0
10
59.749946
20
63.531665
11
60.549945
21
63.317306
0
LINE
8
0
10
60.549945
20
63.317306
11
61.349944
21
63.531665
0
LINE
8
0
10
61.349944
20
63.531665
11
61.935584
21
64.117305
0
LINE
8
0
10
61.935584
20
64.117305
11
62.149943
21
64.917304
0
LINE
8
0
10
62.149943
20
64.917304
11
62.149943
21
64.917304
0
LINE
8
0
10
50.149959
20
64.917304
11
49.935599
21
65.717303
0
LINE
8
0
10
49.935599
20
65.717303
11
49.349959
21
66.302943
0
LINE
8
0
10
49.349959
20
66.302943
11
48.549960
21
66.517302
0
LINE
8
0
10
48.549960
20
66.517302
11
47.749961
21
66.302943
0
LINE
8
0
10
47.749961
20
66.302943
11
47.164321
21
65.717303
0
LINE
8
0
10
47.164321
20
65.717303
11
46.949962
21
64.917304
0
LINE
8
0
10
46.949962
20
64.917304
11
47.164321
21
64.117305
0
LINE
8
0
10
47.164321
20
64.117305
11
47.749961
21
63.531665
0
LINE
8
0
10
47.749961
20
63.531665
11
48.549960
21
63.317306
0
LINE
8
0
10
48.549960
20
63.317306
11
49.349959
21
63.531665
0
LINE
8
0
10
49.349959
20
63.531665
11
49.935599
21
64.117305
0
LINE
8
0
10
49.935599
20
64.117305
11
50.149959
21
64.917304
0
LINE
8
0
10
50.149959
20
64.917304
11
50.149959
21
64.917304
0
LINE
8
0
10
62.149943
20
44.117331
11
61.935584
21
44.917330
0
LINE
8
0
10
61.935584
20
44.917330
11
61.349944
21
45.502970
0
LINE
8
0
10
61.349944
20
45.502970
11
60.549945
21
45.717329
0
LINE
8
0
10
60.549945
20
45.717329
11
59.749946
21
45.502970
0
LINE
8
0
10
59.749946
20
45.502970
11
59.164306
21
44.917330
0
LINE
8
0
10
59.164306
20
44.917330
11
58.949947
21
44.117331
0
LINE
8
0
10
58.949947
20
44.117331
11
59.164306
21
43.317332
0
LINE
8
0
10
59.164306
20
43.317332
11
59.749946
21
42.731692
0
LINE
8
0
10
59.749946
20
42.731692
11
60.549945
21
42.517333
0
LINE
8
0
10
60.549945
20
42.517333
11
61.349944
21
42.731692
0
LINE
8
0
10
61.349944
20
42.731692
11
61.935584
21
43.317332
0
LINE
8
0
10
61.935584
20
43.317332
11
62.149943
21
44.117331
0
LINE
8
0
10
62.149943
20
44.117331
11
62.149943
21
44.117331
0
LINE
8
0
10
50.149959
20
44.117331
11
49.935599
21
44.917330
0
LINE
8
0
10
49.935599
20
44.917330
11
49.349959
21
45.502970
0
LINE
8
0
10
49.349959
20
45.502970
11
48.549960
21
45.717329
0
LINE
8
0
10
48.549960
20
45.717329
11
47.749961
21
45.502970
0
LINE
8
0
10
47.749961
20
45.502970
11
47.164321
21
44.917330
0
LINE
8
0
10
47.164321
20
44.917330
11
46.949962
21
44.117331
0
LINE
8
0
10
46.949962
20
44.117331
11
47.164321
21
43.317332
0
LINE
8
0
10
47.164321
20
43.317332
11
47.749961
21
42.731692
0
LINE
8
0
10
47.749961
20
42.731692
11
48.549960
21
42.517333
0
LINE
8
0
10
48.549960
20
42.517333
11
49.349959
21
42.731692
0
LINE
8
0
10
49.349959
20
42.731692
11
49.935599
21
43.317332
0
LINE
8
0
10
49.935599
20
43.317332
11
50.149959
21
44.117331
0
LINE
8
0
10
50.149959
20
44.117331
11
50.149959
21
44.117331
0
LINE
8
0
10
32.649980
20
86.777276
11
32.435621
21
87.577275
0
LINE
8
0
10
32.435621
20
87.577275
11
31.849981
21
88.162915
0
LINE
8
0
10
31.849981
20
88.162915
11
31.049982
21
88.377274
0
LINE
8
0
10
31.049982
20
88.377274
11
30.249983
21
88.162915
0
LINE
8
0
10
30.249983
20
88.162915
11
29.664343
21
87.577275
0
LINE
8
0
10
29.664343
20
87.577275
11
29.449984
21
86.777276
0
LINE
8
0
10
29.449984
20
86.777276
11
29.664343
21
85.977277
0
LINE
8
0
10
29.664343
20
85.977277
11
30.249983
21
85.391637
0
LINE
8
0
10
30.249983
20
85.391637
11
31.049982
21
85.177278
0
LINE
8
0
10
31.049982
20
85.177278
11
31.849981
21
85.391637
0
LINE
8
0
10
31.849981
20
85.391637
11
32.435621
21
85.977277
0
LINE
8
0
10
32.435621
20
85.977277
11
32.649980
21
86.777276
0
LINE
8
0
10
32.649980
20
86.777276
11
32.649980
21
86.777276
0
LINE
8
0
10
32.649980
20
22.257359
11
32.435621
21
23.057358
0
LINE
8
0
10
32.435621
20
23.057358
11
31.849981
21
23.642998
0
LINE
8
0
10
31.849981
20
23.642998
11
31.049982
21
23.857357
0
LINE
8
0
10
31.049982
20
23.857357
11
30.249983
21
23.642998
0
LINE
8
0
10
30.249983
20
23.642998
11
29.664343
21
23.057358
0
LINE
8
0
10
29.664343
20
23.057358
11
29.449984
21
22.257359
0
LINE
8
0
10
29.449984
20
22.257359
11
29.664343
21
21.457360
0
LINE
8
0
10
29.664343
20
21.457360
11
30.249983
21
20.871720
0
LINE
8
0
10
30.249983
20
20.871720
11
31.049982
21
20.657361
0
LINE
8
0
10
31.049982
20
20.657361
11
31.849981
21
20.871720
0
LINE
8
0
10
31.849981
20
20.871720
11
32.435621
21
21.457360
0
LINE
8
0
10
32.435621
20
21.457360
11
32.649980
21
22.257359
0
LINE
8
0
10
32.649980
20
22.257359
11
32.649980
21
22.257359
0
LINE
8
0
10
113.419877
20
86.777276
11
113.293611
21
87.399476
0
LINE
8
0
10
113.293611
20
87.399476
11
112.950598
21
87.907455
0
LINE
8
0
10
112.950598
20
87.907455
11
112.442225
21
88.249884
0
LINE
8
0
10
112.442225
20
88.249884
11
111.819880
21
88.375433
0
LINE
8
0
10
111.819880
20
88.375433
11
111.197534
21
88.249884
0
LINE
8
0
10
111.197534
20
88.249884
11
110.689161
21
87.907455
0
LINE
8
0
10
110.689161
20
87.907455
11
110.346148
21
87.399476
0
LINE
8
0
10
110.346148
20
87.399476
11
110.219883
21
86.777276
0
LINE
8
0
10
110.219883
20
86.777276
11
110.346148
21
86.155075
0
LINE
8
0
10
110.346148
20
86.155075
11
110.689161
21
85.647096
0
LINE
8
0
10
110.689161
20
85.647096
11
111.197534
21
85.304667
0
LINE
8
0
10
111.197534
20
85.304667
11
111.819880
21
85.179118
0
LINE
8
0
10
111.819880
20
85.179118
11
112.442225
21
85.304667
0
LINE
8
0
10
112.442225
20
85.304667
11
112.950598
21
85.647096
0
LINE
8
0
10
112.950598
20
85.647096
11
113.293611
21
86.155075
0
LINE
8
0
10
113.293611
20
86.155075
11
113.419877
21
86.777276
0
LINE
8
0
10
113.419877
20
86.777276
11
113.419877
21
86.777276
0
LINE
8
0
10
0.050017
20
0.050511
11
121.549970
21
0.050511
0
LINE
8
0
10
0.050017
20
108.983301
11
0.050017
21
0.050511
0
LINE
8
0
10
121.549970
20
108.983301
11
0.050017
21
108.983301
0
LINE
8
0
10
139.715180
20
104.017343
11
121.549970
21
108.983301
0
LINE
8
0
10
139.715180
20
5.016734
11
139.715180
21
104.017343
0
LINE
8
0
10
121.549970
20
0.050511
11
139.715180
21
5.016734
0
LINE
8
0
10
18.550004
20
91.017321
11
78.549941
21
91.017321
0
LINE
8
0
10
78.549941
20
91.017321
11
78.549941
21
103.983476
0
LINE
8
0
10
78.549941
20
103.983476
11
18.550004
21
103.983476
0
LINE
8
0
10
18.550004
20
91.017321
11
18.550004
21
103.983476
0
LINE
8
0
10
78.549941
20
18.018343
11
78.549941
21
5.051130
0
LINE
8
0
10
18.550004
20
18.018343
11
78.549941
21
18.018343
0
LINE
8
0
10
18.550004
20
5.051130
11
18.550004
21
18.018343
0
LINE
8
0
10
18.550004
20
5.051130
11
78.549941
21
5.051130
 0 
ENDSEC
 0 
EOF