<?xml version="1.0" encoding="UTF-8" standalone="no"?>
<svg
   viewBox="0 0 528.24694 412.09297"
   width="528.24695"
   height="412.09296"
   version="1.1"
   id="svg26"
   sodipodi:docname="plaque_bas.svg"
   inkscape:version="1.3.2 (091e20e, 2023-11-25, custom)"
   xmlns:inkscape="http://www.inkscape.org/namespaces/inkscape"
   xmlns:sodipodi="http://sodipodi.sourceforge.net/DTD/sodipodi-0.dtd"
   xmlns="http://www.w3.org/2000/svg"
   xmlns:svg="http://www.w3.org/2000/svg">
  <sodipodi:namedview
     id="namedview26"
     pagecolor="#ffffff"
     bordercolor="#999999"
     borderopacity="1"
     inkscape:showpageshadow="2"
     inkscape:pageopacity="0"
     inkscape:pagecheckerboard="0"
     inkscape:deskcolor="#d1d1d1"
     inkscape:zoom="0.72426349"
     inkscape:cx="428.71138"
     inkscape:cy="35.208181"
     inkscape:window-width="1920"
     inkscape:window-height="1009"
     inkscape:window-x="3832"
     inkscape:window-y="-8"
     inkscape:window-maximized="1"
     inkscape:current-layer="g26" />
  <desc
     id="desc1">plaque_bas.DXF - scale = 1.000000, origin = (0.000000, 0.000000), method = manual</desc>
  <defs
     id="defs4">
    <marker
       id="DistanceX"
       orient="auto"
       refX="0"
       refY="0"
       style="overflow:visible">
      <path
         d="M 3,-3 -3,3 M 0,-5 V 5"
         style="stroke:#000000;stroke-width:0.5"
         id="path1" />
    </marker>
    <pattern
       id="Hatch"
       patternUnits="userSpaceOnUse"
       width="8"
       height="8"
       x="0"
       y="0">
      <path
         d="M8 4 l-4,4"
         stroke="#000000"
         stroke-width="0.25"
         linecap="square"
         id="path2" />
      <path
         d="M6 2 l-4,4"
         stroke="#000000"
         stroke-width="0.25"
         linecap="square"
         id="path3" />
      <path
         d="M4 0 l-4,4"
         stroke="#000000"
         stroke-width="0.25"
         linecap="square"
         id="path4" />
    </pattern>
    <symbol
       id="*Model_Space" />
    <symbol
       id="*Paper_Space" />
    <symbol
       id="*Paper_Space0" />
  </defs>
  <g
     inkscape:groupmode="layer"
     inkscape:label="0"
     id="g26"
     transform="translate(32.314976,-746.39602)">
    <path
       d="m 396.35905,1074.3685 a 6.047244,6.047244 0 0 0 -12.09448,0 6.047244,6.047244 0 0 0 12.09448,0 z"
       style="fill:none;fill-opacity:1;stroke:#ff0000;stroke-width:0.377953;stroke-linecap:round;stroke-dasharray:none;stroke-opacity:1"
       id="path5" />
    <path
       d="m 202.58268,913.13386 a 6.047245,6.047245 0 0 0 -12.09449,0 6.047245,6.047245 0 0 0 12.09449,0 z"
       style="fill:none;fill-opacity:1;stroke:#ff0000;stroke-width:0.377953;stroke-linecap:round;stroke-dasharray:none;stroke-opacity:1"
       id="path6" />
    <path
       d="m 157.22835,913.13386 a 6.047245,6.047245 0 0 0 -12.09449,0 6.047245,6.047245 0 0 0 12.09449,0 z"
       style="fill:none;fill-opacity:1;stroke:#ff0000;stroke-width:0.377953;stroke-linecap:round;stroke-dasharray:none;stroke-opacity:1"
       id="path7" />
    <path
       d="m 202.58268,991.74803 a 6.047245,6.047245 0 0 0 -12.09449,0 6.047245,6.047245 0 0 0 12.09449,0 z"
       style="fill:none;fill-opacity:1;stroke:#ff0000;stroke-width:0.377953;stroke-linecap:round;stroke-dasharray:none;stroke-opacity:1"
       id="path8" />
    <path
       d="m 157.22835,991.74803 a 6.047245,6.047245 0 0 0 -12.09449,0 6.047245,6.047245 0 0 0 12.09449,0 z"
       style="fill:none;fill-opacity:1;stroke:#ff0000;stroke-width:0.377953;stroke-linecap:round;stroke-dasharray:none;stroke-opacity:1"
       id="path9" />
    <path
       d="m 91.086614,830.51339 a 6.047244,6.047244 0 0 0 -12.094488,0 6.047244,6.047244 0 0 0 12.094488,0 z"
       style="fill:none;fill-opacity:1;stroke:#ff0000;stroke-width:0.377953;stroke-linecap:round;stroke-dasharray:none;stroke-opacity:1"
       id="path10" />
    <path
       d="m 91.086614,1074.3685 a 6.047244,6.047244 0 0 0 -12.094488,0 6.047244,6.047244 0 0 0 12.094488,0 z"
       style="fill:none;fill-opacity:1;stroke:#ff0000;stroke-width:0.377953;stroke-linecap:round;stroke-dasharray:none;stroke-opacity:1"
       id="path11" />
    <path
       d="m 396.35905,830.51339 a 6.047244,6.047244 0 0 0 -12.09448,0 6.047244,6.047244 0 0 0 12.09448,0 z"
       style="fill:none;fill-opacity:1;stroke:#ff0000;stroke-width:0.377953;stroke-linecap:round;stroke-dasharray:none;stroke-opacity:1"
       id="path12" />
    <path
       style="fill:none;fill-opacity:1;stroke:#ff0000;stroke-width:0.377953;stroke-linecap:round;stroke-dasharray:none;stroke-opacity:1"
       d="M -32.126,1158.3 H 427.087"
       id="path13" />
    <path
       style="fill:none;fill-opacity:1;stroke:#ff0000;stroke-width:0.377953;stroke-linecap:round;stroke-dasharray:none;stroke-opacity:1"
       d="M -32.126,746.585 V 1158.3"
       id="path14" />
    <path
       style="fill:none;fill-opacity:1;stroke:#ff0000;stroke-width:0.377953;stroke-linecap:round;stroke-dasharray:none;stroke-opacity:1"
       d="M 427.087,746.585 H -32.126"
       id="path15" />
    <path
       style="fill:none;fill-opacity:1;stroke:#ff0000;stroke-width:0.377953;stroke-linecap:round;stroke-dasharray:none;stroke-opacity:1"
       d="M 495.743,765.354 427.087,746.585"
       id="path16" />
    <path
       style="fill:none;fill-opacity:1;stroke:#ff0000;stroke-width:0.377953;stroke-linecap:round;stroke-dasharray:none;stroke-opacity:1"
       d="M 495.743,1139.53 V 765.354"
       id="path17" />
    <path
       style="fill:none;fill-opacity:1;stroke:#ff0000;stroke-width:0.377953;stroke-linecap:round;stroke-dasharray:none;stroke-opacity:1"
       d="m 427.087,1158.3 68.656,-18.77"
       id="path18" />
    <path
       style="fill:none;fill-opacity:1;stroke:#ff0000;stroke-width:0.377953;stroke-linecap:round;stroke-dasharray:none;stroke-opacity:1"
       d="M 37.7953,814.488 H 264.567"
       id="path19" />
    <path
       style="fill:none;fill-opacity:1;stroke:#ff0000;stroke-width:0.377953;stroke-linecap:round;stroke-dasharray:none;stroke-opacity:1"
       d="M 264.567,814.488 V 765.482"
       id="path20" />
    <path
       style="fill:none;fill-opacity:1;stroke:#ff0000;stroke-width:0.377953;stroke-linecap:round;stroke-dasharray:none;stroke-opacity:1"
       d="M 264.567,765.482 H 37.7953"
       id="path21" />
    <path
       style="fill:none;fill-opacity:1;stroke:#ff0000;stroke-width:0.377953;stroke-linecap:round;stroke-dasharray:none;stroke-opacity:1"
       d="M 37.7953,814.488 V 765.482"
       id="path22" />
    <path
       style="fill:none;fill-opacity:1;stroke:#ff0000;stroke-width:0.377953;stroke-linecap:round;stroke-dasharray:none;stroke-opacity:1"
       d="m 264.567,1090.39 v 49.01"
       id="path23" />
    <path
       style="fill:none;fill-opacity:1;stroke:#ff0000;stroke-width:0.377953;stroke-linecap:round;stroke-dasharray:none;stroke-opacity:1"
       d="M 37.7953,1090.39 H 264.567"
       id="path24" />
    <path
       style="fill:none;fill-opacity:1;stroke:#ff0000;stroke-width:0.377953;stroke-linecap:round;stroke-dasharray:none;stroke-opacity:1"
       d="m 37.7953,1139.4 v -49.01"
       id="path25" />
    <path
       style="fill:none;fill-opacity:1;stroke:#ff0000;stroke-width:0.377953;stroke-linecap:round;stroke-dasharray:none;stroke-opacity:1"
       d="M 37.7953,1139.4 H 264.567"
       id="path26" />
  </g>
</svg>
